<?xml version="1.0" standalone="no"?>
<!DOCTYPE svg PUBLIC "-//W3C//DTD SVG 1.1//EN" "http://www.w3.org/Graphics/SVG/1.1/DTD/svg11.dtd" >
<svg xmlns="http://www.w3.org/2000/svg">
<metadata></metadata>
<defs>
<font id="campton-300" horiz-adv-x='1024' >
  <font-face 
    font-family="Campton-Light"
    font-weight="400"
    font-stretch="normal"
    units-per-em="2048"
    panose-1="0 0 5 0 0 0 0 0 0 0"
    ascent="1638"
    descent="-410"
    x-height="946"
    cap-height="1393"
    bbox="-80 -508 2956 1968"
    underline-thickness="102"
    underline-position="-102"
    unicode-range="U+0020-FB02"
  />
<missing-glyph horiz-adv-x="1781" 
d="M348 143h977l-977 977v-977zM1434 1249h-985l985 -985v985zM1577 1393v-1393h-1372v1393h1372z" />
    <glyph glyph-name="fi" unicode="fi" horiz-adv-x="1359" 
d="M1159 946v-946h-139v825h-596v-825h-139v825h-277v121h277v199q0 188 103 297t274 108q132 0 329 -59l-26 -119q-15 4 -49 13t-46 13q-81 24 -196 23q-114 -1 -182 -73t-68 -203v-199h735z" />
    <glyph glyph-name="fl" unicode="fl" horiz-adv-x="1300" 
d="M1128 1454v-1454h-141v1454h141zM285 946v248q0 162 92 259t244 97q98 0 196 -28l-22 -121q-86 20 -168 20q-83 0 -143 -62t-60 -165v-248h340v-121h-340v-825h-139v825h-277v121h277z" />
    <glyph glyph-name=".notdef" horiz-adv-x="1781" 
d="M348 143h977l-977 977v-977zM1434 1249h-985l985 -985v985zM1577 1393v-1393h-1372v1393h1372z" />
    <glyph glyph-name=".null" horiz-adv-x="0" 
 />
    <glyph glyph-name="nonmarkingreturn" horiz-adv-x="681" 
 />
    <glyph glyph-name="space" unicode=" " horiz-adv-x="555" 
 />
    <glyph glyph-name="exclam" unicode="!" horiz-adv-x="538" 
d="M268 -16q-40 0 -68 26t-28 67t28 67t68 26t70 -27q29 -27 29 -67t-29 -66t-70 -26zM332 379h-127l-10 1014h147z" />
    <glyph glyph-name="quotedbl" unicode="&#x22;" horiz-adv-x="651" 
d="M539 1393v-549h-123v549h123zM236 1393v-549h-123v549h123z" />
    <glyph glyph-name="numbersign" unicode="#" horiz-adv-x="1507" 
d="M588 850l-101 -320h418l101 320h-418zM1309 530v-122h-297l-127 -408h-146l129 408h-419l-127 -408h-146l129 408h-221v122h258l100 320h-245v123h284l131 422h146l-133 -422h419l132 422h145l-133 -422h233v-123h-270l-100 -320h258z" />
    <glyph glyph-name="dollar" unicode="$" horiz-adv-x="1351" 
d="M768 -268h-129v239q-225 15 -360 139t-158 334h143q28 -164 140 -254t290 -90t278 75q99 75 99 200q0 190 -262 237l-242 47q-385 71 -385 379q0 158 125 267t332 118v248h129v-252q186 -19 307 -123t144 -280h-144q-25 133 -122 207q-97 73 -262 73t-260 -72t-95 -192
q0 -186 285 -237l210 -41q387 -74 388 -363q0 -176 -123 -290t-328 -130v-239z" />
    <glyph glyph-name="percent" unicode="%" horiz-adv-x="2220" 
d="M1651 76q115 0 195 81t79 201q0 120 -80 200q-81 79 -195 79t-194 -79t-80 -200q0 -122 80 -202t195 -80zM1651 743q165 -1 275 -109t110 -277t-111 -279t-275 -109q-164 0 -274 110q-110 111 -110 279t110 277q111 108 275 108zM571 756q115 0 195 80t80 200t-80 201
q-80 80 -195 80t-195 -80t-79 -201q-1 -120 79 -200t195 -80zM692 0h-108l927 1393h109zM571 1423q164 1 275 -109q110 -110 110 -278t-110 -278t-275 -109q-165 0 -275 110q-110 109 -110 277t110 278t275 109z" />
    <glyph glyph-name="ampersand" unicode="&#x26;" horiz-adv-x="1495" 
d="M600 98q205 0 358 158l-299 266q-111 96 -172 156q-111 -41 -177 -118q-66 -76 -64 -188q0 -112 98 -193t256 -81zM598 -27q-221 0 -355 114t-134 294q0 135 79 236q80 101 209 153q-133 147 -133 299t112 253t282 101t278 -97t125 -269h-139q-14 115 -85 177t-179 62
t-180 -66q-71 -66 -70 -173q0 -55 18 -103t80 -114q62 -68 105 -106q42 -38 165 -146l262 -234l224 320h147l-268 -391l-8 -13l301 -270h-189l-192 172q-188 -199 -455 -199z" />
    <glyph glyph-name="quotesingle" unicode="'" horiz-adv-x="348" 
d="M236 1393v-549h-123v549h123z" />
    <glyph glyph-name="parenleft" unicode="(" horiz-adv-x="708" 
d="M276 623q0 -251 88 -435t267 -346l-88 -92q-408 330 -408 873t408 870l88 -92q-179 -160 -267 -344t-88 -434z" />
    <glyph glyph-name="parenright" unicode=")" horiz-adv-x="708" 
d="M432 622q0 250 -88 435q-88 184 -268 344l88 92q410 -331 410 -871t-410 -872l-88 92q180 162 268 346t88 434z" />
    <glyph glyph-name="asterisk" unicode="*" horiz-adv-x="821" 
d="M453 780h-86v236l-220 -129l-43 71l224 136l-224 131l43 75l220 -131v232h86v-232l221 131l43 -75l-223 -131l223 -136l-43 -71l-221 129v-236z" />
    <glyph glyph-name="plus" unicode="+" horiz-adv-x="1419" 
d="M780 596v-397h-137v397h-403v131h403v397h137v-397h402v-131h-402z" />
    <glyph glyph-name="comma" unicode="," horiz-adv-x="399" 
d="M123 68q0 38 28 66q29 28 69 28t68 -28t28 -62t-31 -97l-111 -258h-90l102 273q-63 18 -63 78z" />
    <glyph glyph-name="hyphen" unicode="-" horiz-adv-x="1153" 
d="M913 627v-142h-673v142h673z" />
    <glyph glyph-name="period" unicode="." horiz-adv-x="362" 
d="M181 -27q-41 0 -69 28t-28 67q0 38 29 66t69 28t68 -28q29 -28 29 -66t-29 -67q-29 -28 -69 -28z" />
    <glyph glyph-name="slash" unicode="/" horiz-adv-x="825" 
d="M233 -328h-135l545 1823h135z" />
    <glyph glyph-name="zero" unicode="0" horiz-adv-x="1468" 
d="M734 100q214 0 334 164t120 432t-120 432t-334 164t-334 -164t-120 -432t120 -432t334 -164zM735 1423q281 1 441 -199t160 -528t-160 -528t-441 -199q-281 0 -441 200q-160 199 -159 527q-1 328 159 528t441 199z" />
    <glyph glyph-name="one" unicode="1" horiz-adv-x="1036" 
d="M1008 121v-121h-908v121h398v1110l-373 -129v127l436 164h80v-1272h367z" />
    <glyph glyph-name="two" unicode="2" horiz-adv-x="1144" 
d="M1042 121v-121h-915v76l448 477q113 115 163 172t91 134t41 149q0 124 -84 206t-224 82t-229 -76t-106 -204h-143q10 184 136 296t334 112t335 -120q127 -118 127 -296q0 -121 -72 -229t-248 -290l-352 -368h698z" />
    <glyph glyph-name="three" unicode="3" horiz-adv-x="1153" 
d="M585 -27q-212 -1 -342 99t-149 268h142q18 -114 109 -178t241 -64t242 76t94 198q0 122 -90 196t-240 73h-115v119h115q129 0 208 73t79 193t-83 195q-82 73 -214 73t-214 -64t-96 -173h-141q14 164 134 263q121 99 315 99q194 -1 315 -109t121 -286q-1 -223 -191 -317
q233 -94 234 -336q0 -174 -131 -286t-343 -112z" />
    <glyph glyph-name="four" unicode="4" horiz-adv-x="1316" 
d="M1223 307h-226v-307h-139v307h-749v88l423 998h150l-403 -961h579v453h139v-453h226v-125z" />
    <glyph glyph-name="five" unicode="5" horiz-adv-x="1198" 
d="M330 856h282q215 0 345 -118t130 -312t-138 -325q-138 -132 -354 -132t-351 108t-168 294h143q31 -131 125 -204t250 -73t256 96t100 234t-96 223q-96 84 -258 84l-401 -2l2 664h819v-129h-686v-408z" />
    <glyph glyph-name="six" unicode="6" horiz-adv-x="1259" 
d="M629 88q162 0 266 101t104 257t-104 256t-269 100t-270 -97l-10 -15q-88 -112 -88 -256t104 -245t267 -101zM631 930q223 0 367 -133t144 -343t-144 -348t-368 -137q-224 0 -370 136q-145 136 -145 346q0 152 112 321l441 621h172l-336 -478q68 15 127 15z" />
    <glyph glyph-name="seven" unicode="7" horiz-adv-x="1028" 
d="M983 1393v-88l-645 -1305h-164l625 1257h-766v136h950z" />
    <glyph glyph-name="eight" unicode="8" horiz-adv-x="1273" 
d="M637 90q162 0 263 85t101 213t-101 208t-263 80t-263 -79q-102 -79 -102 -208t102 -214t263 -85zM636 1309q-138 0 -228 -78t-91 -195q-1 -116 89 -188t230 -72t230 72t90 188t-91 194q-91 79 -229 79zM1157 383q0 -184 -142 -299t-378 -115t-379 115t-143 299
q0 125 72 216q73 91 204 138q-215 90 -215 307q0 164 130 272t331 108t331 -108t130 -272q0 -217 -215 -307q131 -47 203 -138t71 -216z" />
    <glyph glyph-name="nine" unicode="9" horiz-adv-x="1259" 
d="M1001 958q0 144 -104 245t-266 101t-266 -100q-105 -102 -105 -258t104 -256t270 -100q165 0 269 98l10 14q88 112 88 256zM630 1423q224 0 369 -136t146 -345q0 -152 -113 -321l-440 -621h-172l336 477q-68 -14 -127 -14q-223 0 -368 133q-144 133 -144 343t144 347
q145 137 369 137z" />
    <glyph glyph-name="colon" unicode=":" horiz-adv-x="362" 
d="M180 -27q-40 0 -68 28t-28 67q0 38 28 66t68 28t69 -28q27 -28 27 -66t-28 -67q-28 -28 -68 -28zM181 782q-41 0 -69 28t-28 67t29 67t69 27q40 0 68 -28q29 -29 29 -67t-29 -66t-69 -28z" />
    <glyph glyph-name="semicolon" unicode=";" horiz-adv-x="376" 
d="M188 162q40 0 69 -27q28 -27 28 -63t-29 -97l-111 -258h-90l101 273q-61 18 -62 78q0 38 27 66t67 28zM188 782q-40 0 -68 28t-28 67t28 67t68 27q40 0 69 -28q28 -29 28 -67t-28 -66t-69 -28z" />
    <glyph glyph-name="less" unicode="&#x3c;" horiz-adv-x="1132" 
d="M979 1102v-141l-711 -343l711 -342v-141l-864 412v143z" />
    <glyph glyph-name="equal" unicode="=" horiz-adv-x="1466" 
d="M1227 403h-987v132h987v-132zM1227 801h-987v131h987v-131z" />
    <glyph glyph-name="greater" unicode="&#x3e;" horiz-adv-x="1132" 
d="M1020 547l-864 -412v141l708 342l-708 343v141l864 -412v-143z" />
    <glyph glyph-name="question" unicode="?" horiz-adv-x="1161" 
d="M508 -16q-41 0 -69 26q-27 26 -27 67t28 67t68 26q41 0 69 -27q27 -27 27 -67t-27 -66q-28 -26 -69 -26zM530 684q143 0 237 87q93 87 93 218t-88 218t-212 87t-208 -64t-104 -167h-144q25 162 143 259q119 97 305 97t316 -122t129 -301t-117 -293t-309 -121l-4 -195
h-114l-13 297h90z" />
    <glyph glyph-name="at" unicode="@" horiz-adv-x="2027" 
d="M1006 182q166 0 264 146q-6 49 -6 102v197q-96 137 -258 137q-119 0 -204 -81t-85 -210t85 -210t204 -81zM1391 848v-442q0 -223 151 -224q104 0 162 87q57 87 57 231q0 299 -217 507q-217 207 -526 207q-310 0 -530 -212t-220 -518t220 -517t526 -211q270 0 477 168
l61 -90q-229 -182 -536 -182q-233 0 -429 108t-313 300t-116 425q0 354 252 594t609 240t604 -236t247 -579q0 -190 -83 -310t-255 -120t-234 141q-117 -147 -298 -147t-297 116t-115 289q0 174 114 289q115 115 282 115t280 -109v80h127z" />
    <glyph glyph-name="A" unicode="A" horiz-adv-x="1527" 
d="M1069 539l-305 688l-305 -688h610zM1128 406h-729l-180 -406h-156l631 1403h140l630 -1403h-155z" />
    <glyph glyph-name="B" unicode="B" horiz-adv-x="1429" 
d="M342 129h451q170 0 270 74q100 75 100 193t-96 182t-270 63h-455v-512zM342 1264v-494h406q166 0 257 68t91 182t-87 180q-87 64 -239 64h-428zM1309 379q1 -171 -139 -275t-371 -104h-602v1393h587q209 1 330 -95t121 -256q1 -120 -63 -204t-181 -117q156 -25 237 -116
t81 -226z" />
    <glyph glyph-name="C" unicode="C" horiz-adv-x="1654" 
d="M858 111q195 0 331 102t181 276h150q-49 -233 -229.5 -375.5t-432.5 -142.5q-303 0 -513 210t-210 515t210 515t513 210q252 0 432 -142t230 -376h-150q-45 174 -181 276.5t-331 102.5q-244 0 -410.5 -168t-166.5 -418t166.5 -417.5t410.5 -167.5z" />
    <glyph glyph-name="D" unicode="D" horiz-adv-x="1538" 
d="M342 133h338q256 0 420 161t164 408q0 246 -164 402t-420 156h-338v-1127zM197 1393h483q322 0 528 -193q206 -192 205 -498q0 -306 -205 -504t-528 -198h-483v1393z" />
    <glyph glyph-name="E" unicode="E" horiz-adv-x="1294" 
d="M342 1260v-500h739v-135h-739v-492h821v-133h-966v1393h966v-133h-821z" />
    <glyph glyph-name="F" unicode="F" horiz-adv-x="1222" 
d="M342 1260v-535h717v-135h-717v-590h-145v1393h950v-133h-805z" />
    <glyph glyph-name="G" unicode="G" horiz-adv-x="1703" 
d="M1526 696v-696h-119l-12 297q-76 -154 -214.5 -240t-326.5 -86q-305 0 -512 210t-207 514t212 515t517 211q233 0 417.5 -131t242.5 -356h-158q-49 166 -189.5 257t-310.5 91q-248 0 -416.5 -169t-168.5 -417t163.5 -415.5t394 -167.5t369 135t166.5 348h-532v133h684
l-2 -33h2z" />
    <glyph glyph-name="H" unicode="H" horiz-adv-x="1525" 
d="M1329 1393v-1393h-145v623h-842v-623h-145v1393h145v-637h842v637h145z" />
    <glyph glyph-name="I" unicode="I" horiz-adv-x="536" 
d="M342 1393v-1393h-145v1393h145z" />
    <glyph glyph-name="J" unicode="J" horiz-adv-x="1218" 
d="M1042 1393v-891q0 -250 -136 -391t-353 -141t-350 115q-133 116 -160 312h147q20 -137 116 -215t246 -78q151 0 247 108t96 292v889h147z" />
    <glyph glyph-name="K" unicode="K" horiz-adv-x="1441" 
d="M342 0h-145v1393h145v-828l799 828h178l-602 -635l676 -758h-187l-592 651l-272 -286v-365z" />
    <glyph glyph-name="L" unicode="L" horiz-adv-x="1183" 
d="M1118 131v-131h-921v1393h145v-1262h776z" />
    <glyph glyph-name="M" unicode="M" horiz-adv-x="1738" 
d="M1542 1393v-1393h-145l2 1077l-479 -803h-99l-483 805l4 -1079h-145v1393h112l561 -942l562 942h110z" />
    <glyph glyph-name="N" unicode="N" horiz-adv-x="1572" 
d="M1376 1393v-1393h-125l-909 1128v-1128h-145v1393h118l916 -1143v1143h145z" />
    <glyph glyph-name="O" unicode="O" horiz-adv-x="1718" 
d="M281 696q-1 -244 167 -417t411 -173t411 174t168 416q0 244 -168 417t-411 173t-411 -173t-167 -417zM860 1421q301 0 513 -212t212 -513t-212 -513t-513 -212t-513 212t-212 513t212 513t513 212z" />
    <glyph glyph-name="P" unicode="P" horiz-adv-x="1294" 
d="M342 592h334q178 0 287 94t109 244t-109 239q-109 90 -287 91h-334v-668zM197 1393h485q240 0 386 -127t146 -337t-152 -340t-398 -130h-322v-459h-145v1393z" />
    <glyph glyph-name="Q" unicode="Q" horiz-adv-x="1718" 
d="M281 696q-1 -244 167 -417t411 -173t411 174t168 416q0 244 -168 417t-411 173t-411 -173t-167 -417zM1585 696q0 -196 -94 -360t-254 -260l260 -322l-106 -98l-289 356q-117 -41 -242 -41q-301 0 -513 212t-212 513t212 513t513 212t513 -212t212 -513z" />
    <glyph glyph-name="R" unicode="R" horiz-adv-x="1380" 
d="M342 639h369q174 0 281.5 84t107.5 226t-107.5 226.5t-281.5 84.5h-369v-621zM342 506v-506h-145v1393h518q236 0 383 -121t147 -324q0 -168 -104.5 -281.5t-282.5 -148.5l447 -518h-183l-434 506h-346z" />
    <glyph glyph-name="S" unicode="S" horiz-adv-x="1351" 
d="M674 1423q221 0 370.5 -104.5t174.5 -302.5h-144q-25 133 -122 206.5t-263 73.5t-261 -71.5t-95 -192.5q0 -186 287 -237l210 -41q387 -74 388 -363q0 -190 -142.5 -306t-384.5 -116t-394.5 125t-176.5 350h143q27 -164 139.5 -254t291 -90t276.5 75t98 200
q0 190 -262 237l-242 47q-190 35 -287.5 128.5t-97.5 236.5q0 180 136.5 289.5t357.5 109.5z" />
    <glyph glyph-name="T" unicode="T" horiz-adv-x="1300" 
d="M1241 1260h-518v-1260h-145v1260h-519v133h1182v-133z" />
    <glyph glyph-name="U" unicode="U" horiz-adv-x="1536" 
d="M1360 1393v-801q0 -276 -163 -450t-429 -173q-266 0 -429 173t-163 450v801h146v-801q0 -211 124 -349q124 -139 322 -139q199 0 324 138t125 350v801h143z" />
    <glyph glyph-name="V" unicode="V" horiz-adv-x="1525" 
d="M1475 1393l-644 -1403h-135l-643 1403h160l551 -1209l551 1209h160z" />
    <glyph glyph-name="W" unicode="W" horiz-adv-x="2183" 
d="M2097 1393l-475 -1403h-143l-387 1149l-390 -1149h-141l-477 1403h154l395 -1184l395 1184h127l395 -1182l396 1182h151z" />
    <glyph glyph-name="X" unicode="X" horiz-adv-x="1353" 
d="M1133 0l-455 582l-457 -582h-170l531 692l-514 701h178l432 -586l430 586h178l-514 -701l531 -692h-170z" />
    <glyph glyph-name="Y" unicode="Y" horiz-adv-x="1359" 
d="M754 0h-146v498l-577 895h162l487 -760l487 760h162l-575 -895v-498z" />
    <glyph glyph-name="Z" unicode="Z" horiz-adv-x="1339" 
d="M1208 133v-133h-1085v76l872 1184h-845v133h1054v-76l-856 -1184h860z" />
    <glyph glyph-name="bracketleft" unicode="[" horiz-adv-x="700" 
d="M322 -117h280v-135h-422v1747h422v-133h-280v-1479z" />
    <glyph glyph-name="backslash" unicode="\" horiz-adv-x="825" 
d="M209 1495l545 -1823h-138l-544 1823h137z" />
    <glyph glyph-name="bracketright" unicode="]" horiz-adv-x="700" 
d="M68 1362v133h421v-1747h-421v135h282v1479h-282z" />
    <glyph glyph-name="asciicircum" unicode="^" horiz-adv-x="804" 
d="M741 913h-131l-207 371l-208 -371h-132l277 480h125z" />
    <glyph glyph-name="underscore" unicode="_" horiz-adv-x="1333" 
d="M84 -264h1163v-123h-1163v123z" />
    <glyph glyph-name="grave" unicode="`" 
d="M745 1155h-131l-190 291h156z" />
    <glyph glyph-name="a" unicode="a" horiz-adv-x="1267" 
d="M631 96q203 0 323 172v408q-121 172 -323 172q-156 0 -261 -111q-106 -111 -106 -265t106 -266q106 -110 261 -110zM1096 946v-946h-142v104q-137 -131 -341 -131q-204 -1 -347 145t-143 354t143 353t347 145t341 -130v106h142z" />
    <glyph glyph-name="b" unicode="b" horiz-adv-x="1267" 
d="M637 98q154 0 260.5 110.5t106.5 265.5t-106.5 265.5t-260.5 110.5q-207 0 -326 -178v-398q119 -176 326 -176zM653 971q205 0 348.5 -145.5t143.5 -352.5t-143.5 -352.5t-348.5 -145.5t-342 131v-106h-139v1454h139v-614q137 131 342 131z" />
    <glyph glyph-name="c" unicode="c" horiz-adv-x="1183" 
d="M616 102q115 0 196 58.5t103 154.5h146q-29 -152 -152 -247t-293 -95q-213 0 -353 143.5t-140 355.5t140 355.5t353 143.5q170 0 293 -95.5t152 -246.5h-146q-23 96 -103.5 154.5t-195.5 58.5q-156 0 -254 -106.5t-98 -263.5t98 -263.5t254 -106.5z" />
    <glyph glyph-name="d" unicode="d" horiz-adv-x="1267" 
d="M631 98q203 0 323 172v406q-119 174 -323 174q-156 0 -261.5 -110.5t-105.5 -265.5t105.5 -265.5t261.5 -110.5zM1096 1454v-1454h-142v104q-135 -129 -340 -129t-348 145.5t-143 352.5t143.5 352.5t347.5 145.5t340 -129v612h142z" />
    <glyph glyph-name="e" unicode="e" horiz-adv-x="1198" 
d="M607 850q-140 0 -233 -92t-110 -232h670q-12 145 -99.5 234.5t-227.5 89.5zM1065 418h-801q16 -141 110.5 -232.5t243.5 -91.5q205 0 275 146h151q-41 -121 -157.5 -194t-272.5 -73q-215 0 -353 143.5t-138 355.5t138 355.5t346 143.5t337 -139.5t131 -354.5
q0 -41 -2 -59l-8 4v-4z" />
    <glyph glyph-name="f" unicode="f" horiz-adv-x="815" 
d="M424 946h381v-121h-381v-825h-139v825h-277v121h277v248q0 162 92 259t244 97q96 0 194 -28l-20 -121q-86 20 -169 20q-82 0 -142 -62t-60 -165v-248z" />
    <glyph glyph-name="g" unicode="g" horiz-adv-x="1271" 
d="M610 123q217 0 338 178v377q-121 178 -338 178q-154 0 -254 -106t-100 -259t101 -261t253 -107zM1087 946v-977q0 -213 -130 -340q-131 -127 -327 -127t-325 98t-155 255h145q20 -99 107 -161q88 -62 226 -62t229 90q91 91 91 247v166q-141 -135 -349 -135t-346 142
t-138 348t137 348t346 141q209 0 350 -135v102h139z" />
    <glyph glyph-name="h" unicode="h" horiz-adv-x="1196" 
d="M646 977q196 0 308 -118t111 -314v-545h-141v539q0 145 -78 227t-209 82q-197 0 -326 -176v-672h-139v1454h139v-620q139 143 335 143z" />
    <glyph glyph-name="i" unicode="i" horiz-adv-x="544" 
d="M344 946v-946h-141v946h141zM272 1210q-40 0 -68 27t-28 68t28 67t68 27q40 0 69 -28q28 -27 28 -67t-28 -67t-69 -27z" />
    <glyph glyph-name="j" unicode="j" horiz-adv-x="526" 
d="M326 946v-928q0 -205 -78 -297t-273 -94l-10 123q123 4 171 60t48 194v942h142zM254 1210q-41 0 -69 27q-27 27 -27 67t28 68t68 27q41 0 69 -27q27 -28 27 -68t-28 -67t-68 -27z" />
    <glyph glyph-name="k" unicode="k" horiz-adv-x="1155" 
d="M324 0h-140v1454h140v-1010l532 502h180l-411 -397l489 -549h-182l-408 453l-200 -193v-260z" />
    <glyph glyph-name="l" unicode="l" horiz-adv-x="483" 
d="M311 1454v-1454h-139v1454h139z" />
    <glyph glyph-name="m" unicode="m" horiz-adv-x="1851" 
d="M1331 977q173 0 279 -118t106 -314v-545h-139v539q0 147 -72 228t-198 81q-195 0 -303 -182q12 -55 12 -121v-545h-142v539q0 147 -71 228q-72 81 -201 81q-178 0 -291 -172v-676h-139v946h139v-106q125 137 316 137q219 0 325 -176q143 176 379 176z" />
    <glyph glyph-name="n" unicode="n" horiz-adv-x="1196" 
d="M646.5 977q195.5 0 307 -118t111.5 -314v-545h-141v539q0 145 -78 227t-209 82q-197 0 -326 -176v-672h-139v946h139v-112q140 143 335.5 143z" />
    <glyph glyph-name="o" unicode="o" horiz-adv-x="1251" 
d="M627 96q154 0 257 110t103 266t-104 262q-104 108 -257 108t-257 -108q-105 -108 -105 -264t104 -264q104 -110 259 -110zM627 971q213 1 357 -143t144 -356t-144 -357t-357 -145t-359 144q-146 146 -145 358q-1 212 145 356t359 143z" />
    <glyph glyph-name="p" unicode="p" horiz-adv-x="1267" 
d="M637 96q154 0 260 111q107 111 107 265t-106 266q-106 110 -261 110q-207 0 -326 -176v-400q119 -176 326 -176zM653 971q205 1 348 -145t143 -354t-142 -353q-144 -145 -349 -145t-342 132v-614h-139v1454h139v-108q137 133 342 133z" />
    <glyph glyph-name="q" unicode="q" horiz-adv-x="1267" 
d="M631 96q203 0 323 172v408q-121 172 -323 172q-156 0 -261 -111q-106 -111 -106 -265t106 -266q106 -110 261 -110zM1096 946v-1454h-142v612q-137 -131 -341 -131q-204 -1 -347 145t-143 354t143 353t347 145t341 -130v106h142z" />
    <glyph glyph-name="r" unicode="r" horiz-adv-x="735" 
d="M311 946v-164q139 188 371 189v-133q-240 -6 -371 -220v-618h-139v946h139z" />
    <glyph glyph-name="s" unicode="s" horiz-adv-x="1079" 
d="M551 86q117 0 188.5 46t71.5 114q0 135 -164 157l-217 37q-281 45 -280 254q0 127 104 204t271 77t285 -75t130 -226h-131q-12 92 -85 140t-189 48t-181 -44t-65 -113q0 -119 186 -148l189 -33q283 -47 282 -262q0 -135 -110.5 -214t-292.5 -79t-298 83t-136 241h131
q45 -207 311 -207z" />
    <glyph glyph-name="t" unicode="t" horiz-adv-x="880" 
d="M586 -31q-328 0 -328 371v485h-252v121h252v350h139v-350h359v-121h-359v-485q0 -127 51.5 -184.5t141.5 -57.5t178 25l23 -121q-115 -33 -205 -33z" />
    <glyph glyph-name="u" unicode="u" horiz-adv-x="1196" 
d="M1022 946v-946h-139v111q-141 -141 -335 -141t-305 116q-112 117 -112 313v547h139v-538q0 -148 79 -230t210 -82q90 0 176 46t148 130v674h139z" />
    <glyph glyph-name="v" unicode="v" horiz-adv-x="1173" 
d="M1102 946l-451 -946h-129l-450 946h149l365 -768l364 768h152z" />
    <glyph glyph-name="w" unicode="w" horiz-adv-x="1595" 
d="M1524 946l-357 -946h-127l-241 721l-244 -721h-127l-356 946h151l266 -727l248 727h123l246 -725l266 725h152z" />
    <glyph glyph-name="x" unicode="x" horiz-adv-x="1095" 
d="M860 0l-311 377l-316 -377h-167l389 473l-381 473h172l301 -371l305 371h172l-383 -473l389 -473h-170z" />
    <glyph glyph-name="y" unicode="y" horiz-adv-x="1212" 
d="M1133 946l-664 -1454h-150l209 459l-483 995h152l405 -833l381 833h150z" />
    <glyph glyph-name="z" unicode="z" horiz-adv-x="1009" 
d="M911 119v-119h-813v72l613 753h-590v121h790v-82l-606 -745h606z" />
    <glyph glyph-name="braceleft" unicode="{" horiz-adv-x="729" 
d="M426 1167v-258q0 -121 -33 -185t-117 -93q84 -29 117 -93t33 -188v-258q0 -100 56 -162t151 -61v-135q-156 0 -251 98t-95 260v256q0 125 -47 172t-160 47v125q113 0 160 47t47 174v254q0 162 95 260t251 99v-135q-95 0 -151 -62t-56 -162z" />
    <glyph glyph-name="bar" unicode="|" horiz-adv-x="636" 
d="M385 1495v-1823h-133v1823h133z" />
    <glyph glyph-name="braceright" unicode="}" horiz-adv-x="741" 
d="M317 909v258q0 99 -56 161t-150 63v135q157 0 251 -98t95 -261v-254q0 -127 46 -174t161 -47v-125q-115 0 -161 -47t-46 -172v-256q1 -162 -95 -260t-251 -98v135q94 0 150 61t56 162v258q0 123 32 188t116 93q-84 29 -116 92t-32 186z" />
    <glyph glyph-name="asciitilde" unicode="~" horiz-adv-x="937" 
d="M715 809h123q0 -80 -34 -135q-61 -99 -190 -90q-55 4 -100 30l-129 88q-57 39 -109 15q-51 -25 -51 -94h-125q0 80 35 135q63 99 191 90q55 -4 98 -31l131 -88q57 -39 109 -15t51 95z" />
    <glyph glyph-name="exclamdown" unicode="&#xa1;" horiz-adv-x="538" 
d="M195 -436l10 1014h127l10 -1014h-147zM268 973q41 0 70 -28q29 -29 29 -67t-29 -66t-70 -28q-40 0 -68 28t-28 67t28 67t68 27z" />
    <glyph glyph-name="cent" unicode="&#xa2;" horiz-adv-x="1183" 
d="M616 102q115 0 196 58t103 155h146q-27 -137 -129 -228t-250 -110v-235h-129v235q-190 19 -310 159t-120 336t120 335t310 160v260h129v-260q148 -17 250 -109t129 -229h-146q-23 96 -103 154q-81 58 -196 59q-156 0 -254 -106t-98 -264t98 -264t254 -106z" />
    <glyph glyph-name="sterling" unicode="&#xa3;" horiz-adv-x="1290" 
d="M385 123h799v-123h-1094v123h154v457h-154v122h154v252q0 211 132 340t339 129q207 1 335 -109t150 -294h-143q-17 129 -107 204q-90 74 -234 74t-238 -94q-93 -94 -93 -250v-252h489v-122h-489v-457z" />
    <glyph glyph-name="yen" unicode="&#xa5;" horiz-adv-x="1359" 
d="M1133 539v-109h-377v-137h377v-109h-377v-184h-148v184h-381v109h381v137h-381v109h353l-549 854h162l487 -760l489 760h162l-549 -854h351z" />
    <glyph glyph-name="brokenbar" unicode="&#xa6;" horiz-adv-x="636" 
d="M385 -328h-133v807h133v-807zM385 688h-133v807h133v-807z" />
    <glyph glyph-name="section" unicode="&#xa7;" horiz-adv-x="1110" 
d="M883 452q0 66 -45 113t-154 99l-213 100q-8 4 -34 16t-38 19q-74 -9 -123 -53t-49 -110t45 -114t152 -96l213 -100q49 -25 72 -35q76 6 125 50q49 45 49 111zM1024 459q0 -182 -186 -254q96 -90 96 -225q0 -134 -106 -220t-278 -86q-171 0 -283 92t-132 252h150
q14 -100 84 -158t179 -58t175 50q65 50 65 132t-47 129t-168 102l-213 98q-147 68 -212 142t-64 176q0 182 190 254q-98 86 -98 223t106 221t277 84q170 0 282 -92t134 -250h-152q-12 99 -82 157t-179 58t-175 -51q-65 -51 -65 -131t47 -127t168 -105l213 -98
q146 -70 210 -144t64 -171z" />
    <glyph glyph-name="dieresis" unicode="&#xa8;" 
d="M806 1350q42 0 72 -29t30 -70t-30 -69t-72 -29q-42 0 -71 29q-29 30 -29 70t29 69t71 29zM423 1350q42 0 72 -29q29 -29 29 -70t-30 -69t-71 -29q-42 0 -71 29q-28 30 -28 70t28 69q29 29 71 29z" />
    <glyph glyph-name="copyright" unicode="&#xa9;" horiz-adv-x="1759" 
d="M866 969q-98 0 -176 -80t-78 -195q0 -114 78 -194t176 -80t166 47t90 121h113q-29 -121 -126 -196t-241 -75t-255 110q-109 111 -109 269t109 267q111 109 255 109t241 -76q97 -75 126 -195h-113q-23 74 -90 121q-68 47 -166 47zM879 68q262 0 452 182t191 446
q0 264 -190 446t-453 183q-261 0 -451 -182q-190 -183 -190 -447t190 -446t451 -182zM881 1423q307 0 526 -209t219 -518t-219 -518t-526 -209t-527 209q-219 209 -219 518t219 518q220 209 527 209z" />
    <glyph glyph-name="ordfeminine" unicode="&#xaa;" horiz-adv-x="724" 
d="M322 829q123 0 217 78v133h-242q-141 0 -141 -94q0 -51 44 -84t122 -33zM378 1405q116 0 188 -75t73 -210v-362h-100v53q-99 -70 -219 -70q-120 1 -190 55t-71 142q1 88 63 135t179 47h238q0 195 -172 195q-66 0 -116 -29t-58 -80h-101q8 94 89 147q81 52 197 52z" />
    <glyph glyph-name="guillemotleft" unicode="&#xab;" horiz-adv-x="878" 
d="M786 819l-223 -303l223 -303h-139l-225 303l225 303h139zM455 819l-224 -303l224 -303h-140l-223 303l223 303h140z" />
    <glyph glyph-name="registered" unicode="&#xae;" horiz-adv-x="1134" 
d="M467 948h125q45 0 75 25q29 25 29 65t-29 65q-30 26 -75 25h-125v-180zM764 1042q0 -62 -34 -100q-34 -39 -91 -51l137 -162h-84l-131 158h-94v-158h-66v461h193q74 0 122 -43t48 -105zM170 951q0 -163 118 -277t278 -115q161 0 279 115q118 116 118 278t-118 277
t-279 115q-160 0 -278 -116q-118 -114 -118 -277zM567 1421q199 0 341 -136t142 -335t-142 -334t-341 -135t-341 135t-142 334t142 335t341 136z" />
    <glyph glyph-name="macron" unicode="&#xaf;" 
d="M897 1309v-115h-567v115h567z" />
    <glyph glyph-name="degree" unicode="&#xb0;" horiz-adv-x="997" 
d="M499 864q95 0 161 66t67 160q0 94 -67 160q-68 66 -162 65q-94 0 -161 -66q-67 -65 -67 -159t67 -160t162 -66zM499 1423q146 0 243 -95q98 -95 98 -238q0 -142 -98 -238t-243 -96q-146 0 -245 95q-98 95 -98 239t98 238q99 95 245 95z" />
    <glyph glyph-name="plusminus" unicode="&#xb1;" horiz-adv-x="1419" 
d="M1180 223v-131h-940v131h940zM1180 664h-400v-326h-137v326h-403v131h403v325h137v-325h400v-131z" />
    <glyph glyph-name="twosuperior" unicode="&#xb2;" horiz-adv-x="735" 
d="M651 721v-94h-551v59l277 277q84 82 117 127q32 45 32 101t-43 95t-115 39t-116 -38q-43 -38 -47 -103h-111q6 112 77 176t196 64t197 -66t73 -149q0 -83 -38 -145t-130 -153l-186 -190h368z" />
    <glyph glyph-name="threesuperior" unicode="&#xb3;" horiz-adv-x="759" 
d="M666 844q0 -100 -79 -165t-204 -65t-203 58t-92 159h111q10 -53 59 -86t127 -33t126 37q48 36 48 96t-47 95t-131 35h-68v90h68q67 0 109 37t42 95t-42 94t-112 36t-110 -32q-41 -32 -49 -85h-108q10 98 79 157q70 58 188 58t190 -63t71 -172q0 -109 -96 -166
q123 -51 123 -180z" />
    <glyph glyph-name="acute" unicode="&#xb4;" 
d="M850 1446l-191 -291h-131l166 291h156z" />
    <glyph glyph-name="paragraph" unicode="&#xb6;" horiz-adv-x="1511" 
d="M768 1266h-193q-155 0 -255 -91t-100 -239t100 -240q102 -92 255 -92h193v662zM1339 1393v-1721h-145v1594h-281v-1594h-145v801h-193q-213 0 -356 130t-143 334t143 330t356 126h764z" />
    <glyph glyph-name="periodcentered" unicode="&#xb7;" horiz-adv-x="362" 
d="M181 444q-41 0 -69 28t-28 68t29 66t69 27q40 0 68 -27q29 -26 29 -66t-29 -68t-69 -28z" />
    <glyph glyph-name="cedilla" unicode="&#xb8;" 
d="M590 -440h-123l94 295h139z" />
    <glyph glyph-name="onesuperior" unicode="&#xb9;" horiz-adv-x="634" 
d="M608 725v-94h-547v94h228v557l-215 -59v96l262 80h59v-674h213z" />
    <glyph glyph-name="ordmasculine" unicode="&#xba;" horiz-adv-x="794" 
d="M396 831q99 0 165 70t66 170t-66 170t-165 70t-165 -69q-65 -69 -65 -170t66 -171t164 -70zM397 1405q141 0 237 -95q96 -96 97 -238q0 -142 -96 -238q-95 -96 -237 -96t-238 96t-96 238t96 238t237 95z" />
    <glyph glyph-name="guillemotright" unicode="&#xbb;" horiz-adv-x="878" 
d="M786 516l-223 -303h-141l225 303l-225 303h141zM455 516l-224 -303h-139l223 303l-223 303h139z" />
    <glyph glyph-name="onequarter" unicode="&#xbc;" horiz-adv-x="1785" 
d="M1704 164h-125v-164h-106v164h-437v72l244 544h115l-226 -518h304v240h106v-240h125v-98zM61 616v95h228v557l-215 -60v97l262 79h59v-673h213v-95h-547zM1409 1393l-928 -1393h-108l927 1393h109z" />
    <glyph glyph-name="onehalf" unicode="&#xbd;" horiz-adv-x="1779" 
d="M1696 94v-94h-551v59l276 277q84 82 117 127t33 101t-43 95t-116 39t-116 -38t-47 -103h-110q7 111 77 175t195 65q125 0 198 -66t72 -164q1 -68 -37 -130t-131 -152l-186 -191h369zM61 616v95h228v557l-215 -60v97l262 79h59v-673h213v-95h-547zM1415 1393l-928 -1393
h-108l928 1393h108z" />
    <glyph glyph-name="threequarters" unicode="&#xbe;" horiz-adv-x="1771" 
d="M1686 164h-123v-164h-109v164h-436v72l246 544h112l-225 -518h303v240h109v-240h123v-98zM1395 1393l-928 -1393h-109l928 1393h109zM668 838q0 -100 -79 -165t-204 -65t-203 58t-92 159h111q10 -53 59 -86t127 -33t126 36t48 96t-47 96q-47 35 -131 35h-68v90h68
q68 0 110 37t42 95t-42 94t-112 36t-111 -32t-49 -85h-108q10 98 80 156q69 58 187 59q118 0 190 -63t71 -172q0 -109 -96 -166q123 -51 123 -180z" />
    <glyph glyph-name="questiondown" unicode="&#xbf;" horiz-adv-x="1161" 
d="M631 424q-143 0 -237 -87t-93 -218q0 -131 88 -218t212 -87t208 64t104 167h144q-25 -162 -143 -259t-304 -97t-316 122t-130 301q0 178 117 292t309 122l4 195h115l12 -297h-90zM653 1124q41 0 69 -26t28 -67t-28 -67t-69 -26t-69 27t-27 67q-1 40 27 66t69 26z" />
    <glyph glyph-name="Agrave" unicode="&#xc0;" horiz-adv-x="1527" 
d="M1071 539l-307 690l-305 -690h612zM1130 406h-731l-180 -406h-156l633 1403h138l632 -1403h-155zM719 1552l-191 291h156l166 -291h-131z" />
    <glyph glyph-name="Aacute" unicode="&#xc1;" horiz-adv-x="1527" 
d="M1071 539l-307 690l-305 -690h612zM1130 406h-731l-180 -406h-156l633 1403h138l632 -1403h-155zM819 1552h-131l166 291h156z" />
    <glyph glyph-name="Acircumflex" unicode="&#xc2;" horiz-adv-x="1527" 
d="M1071 539l-307 690l-305 -690h612zM1130 406h-731l-180 -406h-156l633 1403h138l632 -1403h-155zM578 1556h-138l252 295h144l251 -295h-137l-186 205z" />
    <glyph glyph-name="Atilde" unicode="&#xc3;" horiz-adv-x="1527" 
d="M1071 539l-307 690l-305 -690h612zM1130 406h-731l-180 -406h-156l633 1403h138l632 -1403h-155zM547 1624h-115q0 94 52 148t118 52q66 -3 125 -34l86 -55q63 -41 106 -21q42 20 42 82h114q0 -94 -50 -149t-116 -55t-129 36l-86 58q-57 38 -102 18t-45 -80z" />
    <glyph glyph-name="Adieresis" unicode="&#xc4;" horiz-adv-x="1527" 
d="M1071 539l-307 690l-305 -690h612zM1130 406h-731l-180 -406h-156l633 1403h138l632 -1403h-155zM1057 1673q0 -41 -30 -69t-72 -29q-43 0 -71 29q-28 30 -28 70t29 69t71 29t71 -29q30 -29 30 -70zM674 1673q0 -41 -30 -69t-72 -29q-42 0 -70 29q-28 30 -29 70
q0 40 29 69q28 29 70 29t72 -29t30 -70z" />
    <glyph glyph-name="Aring" unicode="&#xc5;" horiz-adv-x="1527" 
d="M1071 539l-307 690l-305 -690h612zM1130 406h-731l-180 -406h-156l633 1403h138l632 -1403h-155zM764 1890q-51 0 -85 -34t-34 -83q0 -50 34 -84t85 -34t84 34t33 84q0 49 -33 83t-84 34zM763 1577q-89 0 -147 55q-57 56 -57 142t57 140q58 54 148 54t146 -54t56 -140
t-56 -142q-58 -56 -147 -55z" />
    <glyph glyph-name="AE" unicode="&#xc6;" horiz-adv-x="2263" 
d="M1165 539v655l-501 -655h501zM1311 1260v-500h739v-135h-739v-492h821v-133h-967v406h-602l-311 -406h-178l1075 1393h983v-133h-821z" />
    <glyph glyph-name="Ccedilla" unicode="&#xc7;" horiz-adv-x="1654" 
d="M809 -145h139l-110 -295h-123zM858 111q195 0 331 102t181 276h152q-51 -233 -230.5 -375.5t-433.5 -142.5q-303 0 -513 210t-210 515t210 515t513 210q254 0 433 -142t231 -376h-152q-45 174 -181 276.5t-331 102.5q-244 0 -409.5 -168t-165.5 -418t165.5 -417.5
t409.5 -167.5z" />
    <glyph glyph-name="Egrave" unicode="&#xc8;" horiz-adv-x="1294" 
d="M342 1260v-500h739v-135h-739v-492h821v-133h-966v1393h966v-133h-821zM631 1552l-191 291h156l166 -291h-131z" />
    <glyph glyph-name="Eacute" unicode="&#xc9;" horiz-adv-x="1294" 
d="M342 1260v-500h739v-135h-739v-492h821v-133h-966v1393h966v-133h-821zM731 1552h-131l166 291h156z" />
    <glyph glyph-name="Ecircumflex" unicode="&#xca;" horiz-adv-x="1294" 
d="M342 1260v-500h739v-135h-739v-492h821v-133h-966v1393h966v-133h-821zM489 1556h-137l252 295h144l251 -295h-137l-186 205z" />
    <glyph glyph-name="Edieresis" unicode="&#xcb;" horiz-adv-x="1294" 
d="M342 1260v-500h739v-135h-739v-492h821v-133h-966v1393h966v-133h-821zM867 1575q-42 0 -70.5 28.5t-28.5 69.5t28.5 70t70.5 29t72 -29t30 -70t-30 -69.5t-72 -28.5zM484 1575q-42 0 -70.5 28.5t-28.5 69.5t28.5 70t70.5 29t72 -29t30 -70t-30 -69.5t-72 -28.5z" />
    <glyph glyph-name="Igrave" unicode="&#xcc;" horiz-adv-x="536" 
d="M342 1393v-1393h-145v1393h145zM354 1552h-131l-190 291h155z" />
    <glyph glyph-name="Iacute" unicode="&#xcd;" horiz-adv-x="536" 
d="M342 1393v-1393h-145v1393h145zM514 1843l-190 -291h-131l165 291h156z" />
    <glyph glyph-name="Icircumflex" unicode="&#xce;" horiz-adv-x="536" 
d="M342 1393v-1393h-145v1393h145zM268 1761l-186 -205h-137l252 295h143l252 -295h-137z" />
    <glyph glyph-name="Idieresis" unicode="&#xcf;" horiz-adv-x="536" 
d="M342 1393v-1393h-145v1393h145zM460 1772q42 0 72 -29t29 -70q0 -41 -30 -69q-29 -28 -71 -29q-42 0 -71 29q-29 30 -29 70t29 69t71 29zM77 1772q41 0 71 -29t30 -70t-30 -69t-72 -29q-42 0 -70 29q-29 30 -29 70t29 69t71 29z" />
    <glyph glyph-name="Eth" unicode="&#xd0;" horiz-adv-x="1538" 
d="M342 133h338q256 0 420 161t164 408q0 246 -164 402t-420 156h-338v-504h365v-133h-365v-490zM197 1393h483q324 0 528 -193q204 -192 205 -498q0 -306 -205 -504t-528 -198h-483v623h-144v133h144v637z" />
    <glyph glyph-name="Ntilde" unicode="&#xd1;" horiz-adv-x="1572" 
d="M1376 1393v-1393h-125l-909 1130v-1130h-145v1393h120l914 -1143v1143h145zM569 1624h-114q0 94 52 148q91 96 243 18l86 -55q63 -41 105 -20.5t42 81.5h115q0 -94 -50.5 -149.5t-116 -54.5t-128.5 36l-86 58q-57 39 -102.5 18t-45.5 -80z" />
    <glyph glyph-name="Ograve" unicode="&#xd2;" horiz-adv-x="1718" 
d="M281 696q-1 -244 167 -417t411 -173t411 174t168 416q0 244 -168 417t-411 173t-411 -173t-167 -417zM860 1421q301 0 513 -212t212 -513t-212 -513t-513 -212t-513 212t-212 513t212 513t513 212zM944 1552h-131l-190 291h155z" />
    <glyph glyph-name="Oacute" unicode="&#xd3;" horiz-adv-x="1718" 
d="M281 696q-1 -244 167 -417t411 -173t411 174t168 416q0 244 -168 417t-411 173t-411 -173t-167 -417zM860 1421q301 0 513 -212t212 -513t-212 -513t-513 -212t-513 212t-212 513t212 513t513 212zM1106 1843l-191 -291h-131l166 291h156z" />
    <glyph glyph-name="Ocircumflex" unicode="&#xd4;" horiz-adv-x="1718" 
d="M281 696q-1 -244 167 -417t411 -173t411 174t168 416q0 244 -168 417t-411 173t-411 -173t-167 -417zM860 1421q301 0 513 -212t212 -513t-212 -513t-513 -212t-513 212t-212 513t212 513t513 212zM858 1761l-186 -205h-137l251 295h144l252 -295h-138z" />
    <glyph glyph-name="Otilde" unicode="&#xd5;" horiz-adv-x="1718" 
d="M281 696q-1 -244 167 -417t411 -173t411 174t168 416q0 244 -168 417t-411 173t-411 -173t-167 -417zM860 1421q301 0 513 -212t212 -513t-212 -513t-513 -212t-513 212t-212 513t212 513t513 212zM1055 1796h114q0 -94 -50 -149q-49 -55 -115 -55t-130 36l-86 58
q-57 38 -102 18t-45 -80h-115q0 94 52 148t118 52q66 -3 125 -34l86 -55q63 -41 106 -21q42 21 42 82z" />
    <glyph glyph-name="Odieresis" unicode="&#xd6;" horiz-adv-x="1718" 
d="M281 696q-1 -244 167 -417t411 -173t411 174t168 416q0 244 -168 417t-411 173t-411 -173t-167 -417zM860 1421q301 0 513 -212t212 -513t-212 -513t-513 -212t-513 212t-212 513t212 513t513 212zM1050 1772q42 0 72 -29t29 -70q0 -41 -30 -69q-29 -28 -71 -29
q-42 0 -71 29q-29 30 -29 70t29 69t71 29zM667 1772q41 0 71 -29t30 -70t-30 -69t-72 -29q-42 0 -70 29q-29 30 -29 70t29 69t71 29z" />
    <glyph glyph-name="multiply" unicode="&#xd7;" horiz-adv-x="1357" 
d="M1096 328l-95 -92l-321 323l-324 -323l-94 92l324 323l-324 324l94 92l324 -322l321 322l95 -92l-324 -324z" />
    <glyph glyph-name="Oslash" unicode="&#xd8;" horiz-adv-x="1718" 
d="M858 106q244 0 412 174t168 414t-160 410l-750 -893q148 -105 330 -105zM858 1286q-242 0 -410 -173t-167 -414q0 -241 157 -410l750 893q-147 104 -330 104zM1585 698q0 -303 -212 -515t-513 -212q-236 0 -422 135l-119 -143l-90 76l119 143q-213 213 -213 514t212 513
t513 212q227 0 418 -131l108 129l93 -76l-109 -131q215 -211 215 -514z" />
    <glyph glyph-name="Ugrave" unicode="&#xd9;" horiz-adv-x="1536" 
d="M1362 1393v-801q0 -276 -164 -450t-429 -173q-265 0 -429 173t-164 450v801h146v-801q0 -211 124 -349q124 -139 322 -139q199 0 324 138t125 350v801h145zM854 1552h-131l-191 291h156z" />
    <glyph glyph-name="Uacute" unicode="&#xda;" horiz-adv-x="1536" 
d="M1362 1393v-801q0 -276 -164 -450t-429 -173q-265 0 -429 173t-164 450v801h146v-801q0 -211 124 -349q124 -139 322 -139q199 0 324 138t125 350v801h145zM1014 1843l-191 -291h-131l166 291h156z" />
    <glyph glyph-name="Ucircumflex" unicode="&#xdb;" horiz-adv-x="1536" 
d="M1362 1393v-801q0 -276 -164 -450t-429 -173q-265 0 -429 173t-164 450v801h146v-801q0 -211 124 -349q124 -139 322 -139q199 0 324 138t125 350v801h145zM768 1761l-186 -205h-138l252 295h144l252 -295h-138z" />
    <glyph glyph-name="Udieresis" unicode="&#xdc;" horiz-adv-x="1536" 
d="M1362 1393v-801q0 -276 -164 -450t-429 -173q-265 0 -429 173t-164 450v801h146v-801q0 -211 124 -349q124 -139 322 -139q199 0 324 138t125 350v801h145zM960 1772q42 0 72 -29t29 -70q0 -41 -30 -69q-29 -28 -71 -29q-42 0 -71 29q-29 30 -29 70t29 69t71 29z
M577 1772q41 0 71 -29t30 -70t-30 -69t-72 -29q-42 0 -70 29q-29 30 -29 70t29 69t71 29z" />
    <glyph glyph-name="Yacute" unicode="&#xdd;" horiz-adv-x="1359" 
d="M756 0h-148v498h-2l-575 895h162l487 -760l489 760h162l-575 -895v-498zM737 1552h-131l166 291h156z" />
    <glyph glyph-name="Thorn" unicode="&#xde;" horiz-adv-x="1294" 
d="M342 369h334q178 0 287 94q109 93 109 243t-109 240t-287 90h-334v-667zM342 1169h340q240 0 386 -127q146 -126 146 -336t-152 -340t-398 -130h-322v-236h-145v1393h145v-224z" />
    <glyph glyph-name="germandbls" unicode="&#xdf;" horiz-adv-x="1269" 
d="M1202 4q0 -184 -131 -307t-360 -123q-180 0 -351 72v129q166 -76 346 -76t269 88q90 88 90 217t-91 202t-237 73h-184v69l383 467h-635v-815h-141v1192q0 158 97 254t255 96v-135q-96 0 -154 -59t-57 -156v-246h834v-92l-377 -451q200 -6 322 -111q122 -104 122 -288z
" />
    <glyph glyph-name="agrave" unicode="&#xe0;" horiz-adv-x="1267" 
d="M631 96q203 0 323 172v408q-121 172 -323 172q-156 0 -261 -111q-106 -111 -106 -265t106 -266q106 -110 261 -110zM1094 946v-946h-140v104q-137 -131 -341 -131q-204 -1 -347 145t-143 354t143 353t347 145t341 -130v106h140zM606 1133l-190 290h155l166 -290h-131z
" />
    <glyph glyph-name="aacute" unicode="&#xe1;" horiz-adv-x="1267" 
d="M631 96q203 0 323 172v408q-121 172 -323 172q-156 0 -261 -111q-106 -111 -106 -265t106 -266q106 -110 261 -110zM1094 946v-946h-140v104q-137 -131 -341 -131q-204 -1 -347 145t-143 354t143 353t347 145t341 -130v106h140zM707 1130h-132l166 291h156z" />
    <glyph glyph-name="acircumflex" unicode="&#xe2;" horiz-adv-x="1267" 
d="M631 96q203 0 323 172v408q-121 172 -323 172q-156 0 -261 -111q-106 -111 -106 -265t106 -266q106 -110 261 -110zM1094 946v-946h-140v104q-137 -131 -341 -131q-204 -1 -347 145t-143 354t143 353t347 145t341 -130v106h140zM465 1116h-137l252 295h143l252 -295h-137
l-187 205z" />
    <glyph glyph-name="atilde" unicode="&#xe3;" horiz-adv-x="1267" 
d="M631 96q203 0 323 172v408q-121 172 -323 172q-156 0 -261 -111q-106 -111 -106 -265t106 -266q106 -110 261 -110zM1094 946v-946h-140v104q-137 -131 -341 -131q-204 -1 -347 145t-143 354t143 353t347 145t341 -130v106h140zM463 1204h-115q0 94 52 148t118 52
q66 -3 125 -34l86 -55q63 -41 106 -21q42 20 42 82h114q0 -94 -50 -149t-116 -55t-129 36l-86 58q-57 38 -102 18t-45 -80z" />
    <glyph glyph-name="adieresis" unicode="&#xe4;" horiz-adv-x="1267" 
d="M631 96q203 0 323 172v408q-121 172 -323 172q-156 0 -261 -111q-106 -111 -106 -265t106 -266q106 -110 261 -110zM1094 946v-946h-140v104q-137 -131 -341 -131q-204 -1 -347 145t-143 354t143 353t347 145t341 -130v106h140zM743 1274q0 42 29 70t71 28q41 0 71 -29
t30 -69t-30 -70q-30 -28 -71 -28q-42 0 -71 28t-29 70zM360 1274q0 42 29 70t71 28t72 -29t29 -69q1 -40 -29 -70q-30 -28 -72 -28t-71 28t-29 70z" />
    <glyph glyph-name="aring" unicode="&#xe5;" horiz-adv-x="1267" 
d="M631 96q203 0 323 172v408q-121 172 -323 172q-156 0 -261 -111q-106 -111 -106 -265t106 -266q106 -110 261 -110zM1094 946v-946h-140v104q-137 -131 -341 -131q-204 -1 -347 145t-143 354t143 353t347 145t341 -130v106h140zM653 1430q-51 0 -85 -34t-34 -84t34 -84
t85 -34t84 34t33 84t-33 84t-84 34zM652 1116q-89 0 -146 55t-57 141t57 141q57 54 147 54q91 0 147 -54t56 -140t-57 -142q-58 -55 -147 -55z" />
    <glyph glyph-name="ae" unicode="&#xe6;" horiz-adv-x="1916" 
d="M449 418q-205 0 -205 -146q0 -72 69.5 -125t192.5 -53q213 0 379 164q-33 78 -41 160h-395zM981 526h670q-12 145 -99.5 234.5t-225.5 89.5t-232.5 -90.5t-112.5 -227.5v-6zM1784 418h-803q16 -139 111.5 -231.5t244.5 -92.5q98 0 170 39t103 107h151
q-41 -121 -156.5 -194t-271.5 -73q-252 0 -395 193q-186 -190 -440 -191q-176 0 -282.5 80t-106.5 209t90 195.5t258 66.5h385q0 317 -283 318q-104 0 -172 -45t-84 -123h-143q18 139 128.5 214t270.5 75q264 0 369 -201q66 96 171 151.5t234 55.5q201 0 330 -139.5
t131 -354.5q0 -41 -2 -59l-8 4v-4z" />
    <glyph glyph-name="ccedilla" unicode="&#xe7;" horiz-adv-x="1183" 
d="M537 -145h139l-111 -295h-123zM616 102q115 0 196 58.5t103 154.5h146q-29 -152 -152 -247t-293 -95q-213 0 -353 143.5t-140 355.5t140 355.5t353 143.5q170 0 293 -95.5t152 -246.5h-146q-23 96 -103.5 154.5t-195.5 58.5q-156 0 -254 -106.5t-98 -263.5t98 -263.5
t254 -106.5z" />
    <glyph glyph-name="egrave" unicode="&#xe8;" horiz-adv-x="1198" 
d="M607 850q-140 0 -233 -92t-110 -232h670q-12 145 -99.5 234.5t-227.5 89.5zM1065 418h-801q16 -141 110.5 -232.5t243.5 -91.5q205 0 275 146h151q-41 -121 -157.5 -194t-272.5 -73q-215 0 -353 143.5t-138 355.5t138 355.5t346 143.5t337 -139.5t131 -354.5
q0 -41 -2 -59l-8 4v-4zM561 1133l-190 290h155l166 -290h-131z" />
    <glyph glyph-name="eacute" unicode="&#xe9;" horiz-adv-x="1198" 
d="M607 850q-140 0 -233 -92t-110 -232h670q-12 145 -99.5 234.5t-227.5 89.5zM1065 418h-801q16 -141 110.5 -232.5t243.5 -91.5q205 0 275 146h151q-41 -121 -157.5 -194t-272.5 -73q-215 0 -353 143.5t-138 355.5t138 355.5t346 143.5t337 -139.5t131 -354.5
q0 -41 -2 -59l-8 4v-4zM664 1130h-132l166 291h156z" />
    <glyph glyph-name="ecircumflex" unicode="&#xea;" horiz-adv-x="1198" 
d="M607 850q-140 0 -233 -92t-110 -232h670q-12 145 -99.5 234.5t-227.5 89.5zM1065 418h-801q16 -141 110.5 -232.5t243.5 -91.5q205 0 275 146h151q-41 -121 -157.5 -194t-272.5 -73q-215 0 -353 143.5t-138 355.5t138 355.5t346 143.5t337 -139.5t131 -354.5
q0 -41 -2 -59l-8 4v-4zM420 1116h-137l252 295h143l252 -295h-137l-187 205z" />
    <glyph glyph-name="edieresis" unicode="&#xeb;" horiz-adv-x="1198" 
d="M607 850q-140 0 -233 -92t-110 -232h670q-12 145 -99.5 234.5t-227.5 89.5zM1065 418h-801q16 -141 110.5 -232.5t243.5 -91.5q205 0 275 146h151q-41 -121 -157.5 -194t-272.5 -73q-215 0 -353 143.5t-138 355.5t138 355.5t346 143.5t337 -139.5t131 -354.5
q0 -41 -2 -59l-8 4v-4zM800 1176q-42 0 -71 28.5t-29 69.5t29 69.5t71 28.5t71.5 -28.5t29.5 -69.5t-29.5 -69.5t-71.5 -28.5zM417 1176q-42 0 -71 28.5t-29 69.5t29 69.5t71 28.5t71.5 -28.5t29.5 -69.5t-29.5 -69.5t-71.5 -28.5z" />
    <glyph glyph-name="igrave" unicode="&#xec;" horiz-adv-x="546" 
d="M342 946v-946h-139v946h139zM358 1133h-131l-190 290h156z" />
    <glyph glyph-name="iacute" unicode="&#xed;" horiz-adv-x="546" 
d="M342 946v-946h-139v946h139zM520 1421l-190 -291h-131l166 291h155z" />
    <glyph glyph-name="icircumflex" unicode="&#xee;" horiz-adv-x="546" 
d="M342 946v-946h-139v946h139zM272 1321l-186 -205h-137l252 295h143l252 -295h-137z" />
    <glyph glyph-name="idieresis" unicode="&#xef;" horiz-adv-x="546" 
d="M342 946v-946h-139v946h139zM466 1372q42 0 72 -29t30 -69t-30 -70q-30 -28 -72 -28t-71 28t-28 70t29 70t70 28zM83 1372q42 0 72 -29q29 -29 29 -69t-30 -70q-30 -28 -71 -28q-42 0 -71 28t-28 70q0 42 28 70t71 28z" />
    <glyph glyph-name="eth" unicode="&#xf0;" horiz-adv-x="1216" 
d="M627 96q154 0 257 110t103 266t-104 262q-104 108 -257 108t-257 -108q-105 -108 -105 -264t104 -264q104 -110 259 -110zM1128 482q0 -222 -144 -367t-357 -145t-359 144q-146 146 -145 358q0 212 145 355t359 144q158 0 282 -105q-84 190 -258 326l-334 -123l-34 98
l264 99q-111 66 -248 116l150 62q121 -43 241 -125l174 63l37 -98l-115 -43q160 -141 251 -339t91 -420z" />
    <glyph glyph-name="ntilde" unicode="&#xf1;" horiz-adv-x="1196" 
d="M646.5 977q195.5 0 307 -118t111.5 -314v-545h-139v539q0 145 -79 227t-210 82q-197 0 -326 -176v-672h-139v946h139v-112q140 143 335.5 143zM426 1204h-115q0 94 52.5 148.5t118 51.5t124.5 -34l86 -55q63 -41 105.5 -20.5t42.5 81.5h114q0 -94 -50 -149.5t-116 -54.5
t-129 36l-86 58q-57 39 -102 18.5t-45 -80.5z" />
    <glyph glyph-name="ograve" unicode="&#xf2;" horiz-adv-x="1251" 
d="M627 96q154 0 258 110t104 266t-104 262q-104 108 -258 108t-258 -108q-105 -108 -105 -264t104 -264q104 -110 259 -110zM627 971q213 1 357 -143t144 -356t-144 -357t-357 -145t-359 144q-146 146 -145 358q-1 212 145 356t359 143zM713 1133h-131l-191 290h156z" />
    <glyph glyph-name="oacute" unicode="&#xf3;" horiz-adv-x="1251" 
d="M627 96q154 0 258 110t104 266t-104 262q-104 108 -258 108t-258 -108q-105 -108 -105 -264t104 -264q104 -110 259 -110zM627 971q213 1 357 -143t144 -356t-144 -357t-357 -145t-359 144q-146 146 -145 358q-1 212 145 356t359 143zM872 1421l-190 -291h-131l166 291
h155z" />
    <glyph glyph-name="ocircumflex" unicode="&#xf4;" horiz-adv-x="1251" 
d="M627 96q154 0 258 110t104 266t-104 262q-104 108 -258 108t-258 -108q-105 -108 -105 -264t104 -264q104 -110 259 -110zM627 971q213 1 357 -143t144 -356t-144 -357t-357 -145t-359 144q-146 146 -145 358q-1 212 145 356t359 143zM627 1321l-187 -205h-137l252 295
h143l252 -295h-137z" />
    <glyph glyph-name="otilde" unicode="&#xf5;" horiz-adv-x="1251" 
d="M627 96q154 0 258 110t104 266t-104 262q-104 108 -258 108t-258 -108q-105 -108 -105 -264t104 -264q104 -110 259 -110zM627 971q213 1 357 -143t144 -356t-144 -357t-357 -145t-359 144q-146 146 -145 358q-1 212 145 356t359 143zM850 1376h115q-1 -94 -51 -149
t-116 -55t-128 36l-86 58q-56 38 -102 18t-46 -80h-114q0 94 52 148t118 52q66 -3 124 -34l86 -55q63 -41 106 -21q42 21 42 82z" />
    <glyph glyph-name="odieresis" unicode="&#xf6;" horiz-adv-x="1251" 
d="M627 96q154 0 258 110t104 266t-104 262q-104 108 -258 108t-258 -108q-105 -108 -105 -264t104 -264q104 -110 259 -110zM627 971q213 1 357 -143t144 -356t-144 -357t-357 -145t-359 144q-146 146 -145 358q-1 212 145 356t359 143zM719 1274q1 42 29 70t70 28t72 -29
t30 -69t-30 -70q-30 -28 -72 -28t-70 28t-29 70zM336 1274q0 42 28 70t71 28q42 0 72 -29t30 -69t-30 -70q-30 -28 -72 -28q-43 0 -71 28t-28 70z" />
    <glyph glyph-name="divide" unicode="&#xf7;" horiz-adv-x="1419" 
d="M616 283q0 39 27 65t67 27q40 0 68 -27q28 -28 27 -66q1 -38 -27 -64t-68 -25q-40 -1 -67 25t-27 65zM240 727h940v-131h-940v131zM711 950q-39 0 -67 27t-28 65t28 66q28 27 67 27t67 -27t27 -66q1 -40 -27 -66t-67 -26z" />
    <glyph glyph-name="oslash" unicode="&#xf8;" horiz-adv-x="1251" 
d="M627 96q154 0 258 110t104 264t-98 257l-471 -565q92 -66 207 -66zM627 842q-155 0 -259 -108t-104 -252q0 -146 82 -249l467 558q-84 51 -186 51zM123 475q0 209 145 352t359 144q147 0 272 -76l64 76l77 -66l-61 -74q149 -145 149 -358t-144 -358t-357 -146
q-164 0 -293 90l-68 -79l-78 65l68 82q-133 139 -133 348z" />
    <glyph glyph-name="ugrave" unicode="&#xf9;" horiz-adv-x="1196" 
d="M1022 946v-946h-139v111q-141 -141 -335 -141t-305 116q-112 117 -112 313v547h139v-538q0 -148 79 -230t210 -82q90 0 176 46t148 130v674h139zM541 1133l-191 290h156l166 -290h-131z" />
    <glyph glyph-name="uacute" unicode="&#xfa;" horiz-adv-x="1196" 
d="M1022 946v-946h-139v111q-141 -141 -335 -141t-305 116q-112 117 -112 313v547h139v-538q0 -148 79 -230t210 -82q90 0 176 46t148 130v674h139zM641 1130h-131l166 291h155z" />
    <glyph glyph-name="ucircumflex" unicode="&#xfb;" horiz-adv-x="1196" 
d="M1022 946v-946h-139v111q-141 -141 -335 -141t-305 116q-112 117 -112 313v547h139v-538q0 -148 79 -230t210 -82q90 0 176 46t148 130v674h139zM399 1116h-137l252 295h143l252 -295h-137l-186 205z" />
    <glyph glyph-name="udieresis" unicode="&#xfc;" horiz-adv-x="1196" 
d="M1022 946v-946h-139v111q-141 -141 -335 -141t-305 116q-112 117 -112 313v547h139v-538q0 -148 79 -230t210 -82q90 0 176 46t148 130v674h139zM879 1274q0 -40 -30 -70q-30 -28 -72 -28q-43 0 -71 28t-28 70t29 70t71 28t71 -29q30 -29 30 -69zM496 1274q0 -40 -30 -70
q-30 -28 -72 -28t-70 28t-29 70q0 42 29 70q28 28 70 28t72 -29t30 -69z" />
    <glyph glyph-name="yacute" unicode="&#xfd;" horiz-adv-x="1212" 
d="M1130 946l-661 -1454h-150l209 459l-483 995h152l405 -833l379 833h149zM655 1130h-131l166 291h156z" />
    <glyph glyph-name="thorn" unicode="&#xfe;" horiz-adv-x="1259" 
d="M637 96q154 0 260 111q107 111 107 265t-106 266q-106 110 -261 110q-207 0 -326 -176v-400q119 -176 326 -176zM653 971q205 1 348 -145t143 -354t-142 -353q-144 -145 -349 -145t-342 132v-614h-139v1901h139v-555q137 133 342 133z" />
    <glyph glyph-name="ydieresis" unicode="&#xff;" horiz-adv-x="1212" 
d="M1130 946l-661 -1454h-150l209 459l-483 995h152l405 -833l379 833h149zM692 1274q0 42 29 70t71 28t72 -29t29 -69q1 -40 -29 -70q-30 -28 -72 -28t-71 28t-29 70zM309 1274q0 42 29 70t71 28q41 0 71 -29t30 -69t-30 -70q-30 -28 -71 -28q-42 0 -71 28t-29 70z" />
    <glyph glyph-name="Amacron" unicode="&#x100;" horiz-adv-x="1527" 
d="M1071 539l-307 690l-305 -690h612zM1130 406h-731l-180 -406h-156l633 1403h138l632 -1403h-155zM1047 1575h-568v115h568v-115z" />
    <glyph glyph-name="amacron" unicode="&#x101;" horiz-adv-x="1267" 
d="M631 96q203 0 323 172v408q-121 172 -323 172q-156 0 -261 -111q-106 -111 -106 -265t106 -266q106 -110 261 -110zM1094 946v-946h-140v104q-137 -131 -341 -131q-204 -1 -347 145t-143 354t143 353t347 145t341 -130v106h140zM934 1171h-567v115h567v-115z" />
    <glyph glyph-name="Abreve" unicode="&#x102;" horiz-adv-x="1527" 
d="M1071 539l-307 690l-305 -690h612zM1130 406h-731l-180 -406h-156l633 1403h138l632 -1403h-155zM764 1565q-125 -1 -208 73t-83 211h107q0 -92 54 -139t130 -47t130 47t54 139h107q0 -137 -83 -211t-208 -73z" />
    <glyph glyph-name="abreve" unicode="&#x103;" horiz-adv-x="1267" 
d="M631 96q203 0 323 172v408q-121 172 -323 172q-156 0 -261 -111q-106 -111 -106 -265t106 -266q106 -110 261 -110zM1094 946v-946h-140v104q-137 -131 -341 -131q-204 -1 -347 145t-143 354t143 353t347 145t341 -130v106h140zM651 1106q-125 0 -208 74t-83 211h107
q0 -91 54 -139t130 -48t130 47t55 140h106q0 -137 -83 -211t-208 -74z" />
    <glyph glyph-name="Aogonek" unicode="&#x104;" horiz-adv-x="1527" 
d="M1071 539l-307 690l-305 -690h612zM1401 -385q-119 0 -191 59t-71 156q0 129 155 207l-164 369h-731l-180 -406h-156l633 1403h138l632 -1403h-45q-162 -53 -161 -156q0 -53 42 -84t117 -30q25 0 70 8l14 -109q-39 -14 -102 -14z" />
    <glyph glyph-name="aogonek" unicode="&#x105;" horiz-adv-x="1267" 
d="M631 96q203 0 323 172v408q-121 172 -323 172q-156 0 -261 -111q-106 -111 -106 -265t106 -266q106 -110 261 -110zM1063 -389q-119 0 -191 59t-71 156q0 129 153 207v71q-137 -131 -341 -131q-204 -1 -347 145t-143 354t143 353t347 145t341 -130v106h140v-940l2 -6
q-174 -55 -174 -160q0 -53 42 -84t117 -30q25 0 70 8l14 -109q-39 -14 -102 -14z" />
    <glyph glyph-name="Cacute" unicode="&#x106;" horiz-adv-x="1654" 
d="M858 111q195 0 331 102t181 276h152q-51 -233 -230.5 -375.5t-433.5 -142.5q-303 0 -513 210t-210 515t210 515t513 210q254 0 433 -142t231 -376h-152q-45 174 -181 276.5t-331 102.5q-244 0 -409.5 -168t-165.5 -418t165.5 -417.5t409.5 -167.5zM915 1552h-131l166 291
h156z" />
    <glyph glyph-name="cacute" unicode="&#x107;" horiz-adv-x="1183" 
d="M616 102q115 0 196 58.5t103 154.5h146q-29 -152 -152 -247t-293 -95q-213 0 -353 143.5t-140 355.5t140 355.5t353 143.5q170 0 293 -95.5t152 -246.5h-146q-23 96 -103.5 154.5t-195.5 58.5q-156 0 -254 -106.5t-98 -263.5t98 -263.5t254 -106.5zM666 1130h-131
l165 291h156z" />
    <glyph glyph-name="Cdotaccent" unicode="&#x10a;" horiz-adv-x="1654" 
d="M858 111q195 0 331 102t181 276h152q-51 -233 -230.5 -375.5t-433.5 -142.5q-303 0 -513 210t-210 515t210 515t513 210q254 0 433 -142t231 -376h-152q-45 174 -181 276.5t-331 102.5q-244 0 -409.5 -168t-165.5 -418t165.5 -417.5t409.5 -167.5zM860 1575
q-41 0 -70.5 28.5t-29.5 69.5t29.5 70t70.5 29t71 -29t30 -70t-30 -69.5t-71 -28.5z" />
    <glyph glyph-name="cdotaccent" unicode="&#x10b;" horiz-adv-x="1183" 
d="M616 102q115 0 196 58.5t103 154.5h146q-29 -152 -152 -247t-293 -95q-213 0 -353 143.5t-140 355.5t140 355.5t353 143.5q170 0 293 -95.5t152 -246.5h-146q-23 96 -103.5 154.5t-195.5 58.5q-156 0 -254 -106.5t-98 -263.5t98 -263.5t254 -106.5zM608 1176
q-41 0 -70.5 28.5t-29.5 69.5t29.5 69.5t70.5 28.5t71 -28.5t30 -69.5t-30 -69.5t-71 -28.5z" />
    <glyph glyph-name="Ccaron" unicode="&#x10c;" horiz-adv-x="1654" 
d="M858 111q195 0 331 102t181 276h152q-51 -233 -230.5 -375.5t-433.5 -142.5q-303 0 -513 210t-210 515t210 515t513 210q254 0 433 -142t231 -376h-152q-45 174 -181 276.5t-331 102.5q-244 0 -409.5 -168t-165.5 -418t165.5 -417.5t409.5 -167.5zM788 1548l-251 295h137
l186 -207l187 207h137l-252 -295h-144z" />
    <glyph glyph-name="ccaron" unicode="&#x10d;" horiz-adv-x="1183" 
d="M616 102q115 0 196 58.5t103 154.5h146q-29 -152 -152 -247t-293 -95q-213 0 -353 143.5t-140 355.5t140 355.5t353 143.5q170 0 293 -95.5t152 -246.5h-146q-23 96 -103.5 154.5t-195.5 58.5q-156 0 -254 -106.5t-98 -263.5t98 -263.5t254 -106.5zM537 1116l-252 295
h137l186 -207l187 207h137l-252 -295h-143z" />
    <glyph glyph-name="Dcaron" unicode="&#x10e;" horiz-adv-x="1538" 
d="M342 133h338q256 0 420 161t164 408q0 246 -164 402t-420 156h-338v-1127zM197 1393h483q324 0 528 -193q204 -192 205 -498q0 -306 -205 -504t-528 -198h-483v1393zM635 1548l-252 295h137l187 -207l186 207h137l-252 -295h-143z" />
    <glyph glyph-name="dcaron" unicode="&#x10f;" horiz-adv-x="1267" 
d="M631 98q203 0 323 172v406q-119 174 -323 174q-156 0 -261.5 -110.5t-105.5 -265.5t105.5 -265.5t261.5 -110.5zM1448 1454l-53 -379h-109l21 379h141zM954 1454h140v-1454h-140v104q-135 -129 -340 -129t-348 145.5t-143 352.5t143.5 352.5t347.5 145.5t340 -129v612z
" />
    <glyph glyph-name="Dcroat" unicode="&#x110;" horiz-adv-x="1538" 
d="M342 133h338q256 0 420 161t164 408q0 246 -164 402t-420 156h-338v-504h365v-133h-365v-490zM197 1393h483q324 0 528 -193q204 -192 205 -498q0 -306 -205 -504t-528 -198h-483v623h-144v133h144v637z" />
    <glyph glyph-name="dcroat" unicode="&#x111;" horiz-adv-x="1267" 
d="M631 98q203 0 323 172v406q-119 174 -323 174q-156 0 -261.5 -110.5t-105.5 -265.5t105.5 -265.5t261.5 -110.5zM1174 1176h-80v-1176h-140v104q-135 -129 -340 -129t-348 145.5t-143 352.5t143.5 352.5t347.5 145.5t340 -129v334h-399v116h399v162h140v-162h80v-116z
" />
    <glyph glyph-name="Emacron" unicode="&#x112;" horiz-adv-x="1294" 
d="M342 1260v-500h739v-135h-739v-492h821v-133h-966v1393h966v-133h-821zM958 1575h-567v115h567v-115z" />
    <glyph glyph-name="emacron" unicode="&#x113;" horiz-adv-x="1198" 
d="M607 850q-140 0 -233 -92t-110 -232h670q-12 145 -99.5 234.5t-227.5 89.5zM1065 418h-801q16 -141 110.5 -232.5t243.5 -91.5q205 0 275 146h151q-41 -121 -157.5 -194t-272.5 -73q-215 0 -353 143.5t-138 355.5t138 355.5t346 143.5t337 -139.5t131 -354.5
q0 -41 -2 -59l-8 4v-4zM891 1171h-567v115h567v-115z" />
    <glyph glyph-name="Edotaccent" unicode="&#x116;" horiz-adv-x="1294" 
d="M342 1260v-500h739v-135h-739v-492h821v-133h-966v1393h966v-133h-821zM676 1575q-41 0 -71 28.5t-30 69.5t30 70t71 29t70.5 -29t29.5 -70t-29.5 -69.5t-70.5 -28.5z" />
    <glyph glyph-name="edotaccent" unicode="&#x117;" horiz-adv-x="1198" 
d="M607 850q-140 0 -233 -92t-110 -232h670q-12 145 -99.5 234.5t-227.5 89.5zM1065 418h-801q16 -141 110.5 -232.5t243.5 -91.5q205 0 275 146h151q-41 -121 -157.5 -194t-272.5 -73q-215 0 -353 143.5t-138 355.5t138 355.5t346 143.5t337 -139.5t131 -354.5
q0 -41 -2 -59l-8 4v-4zM608 1176q-41 0 -70.5 28.5t-29.5 69.5t29.5 69.5t70.5 28.5t71 -28.5t30 -69.5t-30 -69.5t-71 -28.5z" />
    <glyph glyph-name="Eogonek" unicode="&#x118;" horiz-adv-x="1294" 
d="M1133 -389q-119 0 -191 59.5t-72 158.5t101 171h-774v1393h966v-133h-821v-500h739v-135h-739v-492h821v-127l2 -6q-174 -55 -174 -160q0 -53 42 -83.5t118 -30.5q25 0 70 8l14 -109q-39 -14 -102 -14z" />
    <glyph glyph-name="eogonek" unicode="&#x119;" horiz-adv-x="1198" 
d="M607 850q-140 0 -233 -92t-110 -232h670q-12 145 -99.5 234.5t-227.5 89.5zM1065 418h-801q16 -141 110.5 -232.5t243.5 -91.5q205 0 275 146h151q-37 -109 -137 -181q-59 -57 -82.5 -93t-23.5 -91t42 -87t97.5 -32t91.5 6l12 -108q-37 -14 -102 -14q-117 0 -189.5 59
t-72.5 141.5t37 141.5q-43 -8 -103 -9q-215 0 -353 143.5t-138 355.5t138 355.5t346 143.5t337 -139.5t131 -354.5q0 -41 -2 -59l-8 4v-4z" />
    <glyph glyph-name="Ecaron" unicode="&#x11a;" horiz-adv-x="1294" 
d="M342 1260v-500h739v-135h-739v-492h821v-133h-966v1393h966v-133h-821zM604 1548l-252 295h137l187 -207l186 207h137l-251 -295h-144z" />
    <glyph glyph-name="ecaron" unicode="&#x11b;" horiz-adv-x="1198" 
d="M607 850q-140 0 -233 -92t-110 -232h670q-12 145 -99.5 234.5t-227.5 89.5zM1065 418h-801q16 -141 110.5 -232.5t243.5 -91.5q205 0 275 146h151q-41 -121 -157.5 -194t-272.5 -73q-215 0 -353 143.5t-138 355.5t138 355.5t346 143.5t337 -139.5t131 -354.5
q0 -41 -2 -59l-8 4v-4zM535 1116l-252 295h137l186 -207l187 207h137l-252 -295h-143z" />
    <glyph glyph-name="Gbreve" unicode="&#x11e;" horiz-adv-x="1703" 
d="M1526 696v-696h-119l-12 297q-76 -154 -214.5 -240t-326.5 -86q-305 0 -512 210t-207 514t212 515t517 211q236 0 420 -131t240 -356h-156q-51 166 -191.5 257t-310.5 91q-248 0 -415.5 -169t-167.5 -417t162.5 -415.5t393 -167.5t369 135t166.5 348h-532v133h686l-4 -33
h2zM862 1565q-125 0 -208 73.5t-83 210.5h107q0 -92 54 -139t130 -47t130.5 47t54.5 139h106q0 -137 -83 -210.5t-208 -73.5z" />
    <glyph glyph-name="gbreve" unicode="&#x11f;" horiz-adv-x="1271" 
d="M610 123q217 0 338 178v377q-121 178 -338 178q-154 0 -254 -106t-100 -259t101 -261t253 -107zM1087 946v-977q0 -213 -130 -340q-129 -127 -327 -127t-327 98t-153 255h143q23 -100 109 -162q88 -61 226 -61t228 90q90 91 90 247h2v166q-145 -135 -351 -135t-344 142
t-138 348t137 348t344 141q207 0 352 -135v102h139zM639 1106q-125 0 -208 74t-83 211h107q0 -91 54 -139t130 -48t130 47t54 140h107q0 -137 -83 -211t-208 -74z" />
    <glyph glyph-name="Gdotaccent" unicode="&#x120;" horiz-adv-x="1703" 
d="M1526 696v-696h-119l-12 297q-76 -154 -214.5 -240t-326.5 -86q-305 0 -512 210t-207 514t212 515t517 211q236 0 420 -131t240 -356h-156q-51 166 -191.5 257t-310.5 91q-248 0 -415.5 -169t-167.5 -417t162.5 -415.5t393 -167.5t369 135t166.5 348h-532v133h686l-4 -33
h2zM862 1575q-41 0 -70.5 28.5t-29.5 69.5t29.5 70t70.5 29t71 -29t30 -70t-30 -69.5t-71 -28.5z" />
    <glyph glyph-name="gdotaccent" unicode="&#x121;" horiz-adv-x="1271" 
d="M610 123q217 0 338 178v377q-121 178 -338 178q-154 0 -254 -106t-100 -259t101 -261t253 -107zM1087 946v-977q0 -213 -130 -340q-129 -127 -327 -127t-327 98t-153 255h143q23 -100 109 -162q88 -61 226 -61t228 90q90 91 90 247h2v166q-145 -135 -351 -135t-344 142
t-138 348t137 348t344 141q207 0 352 -135v102h139zM639 1176q-41 0 -71 28t-29 70q-1 42 29 70t71 28t71 -29t30 -69t-30 -70q-30 -28 -71 -28z" />
    <glyph glyph-name="Gcommaaccent" unicode="&#x122;" horiz-adv-x="1703" 
d="M840 -135q39 0 66.5 -25.5t27.5 -60.5t-15.5 -69t-95.5 -195h-84l76 180q-70 14 -70 82q0 37 28 62.5t67 25.5zM1526 696v-696h-119l-12 297q-76 -154 -214.5 -240t-326.5 -86q-305 0 -512 210t-207 514t212 515t517 211q236 0 420 -131t240 -356h-156
q-51 166 -191.5 257t-310.5 91q-248 0 -415.5 -169t-167.5 -417t162.5 -415.5t393 -167.5t369 135t166.5 348h-532v133h686l-4 -33h2z" />
    <glyph glyph-name="gcommaaccent" unicode="&#x123;" horiz-adv-x="1271" 
d="M610 123q217 0 338 178v377q-121 178 -338 178q-154 0 -254 -106t-100 -259t101 -261t253 -107zM1087 946v-977q0 -213 -130 -340q-129 -127 -327 -127t-327 98t-153 255h143q23 -100 109 -162q88 -61 226 -61t228 90q90 91 90 247h2v166q-145 -135 -351 -135t-344 142
t-138 348t137 348t344 141q207 0 352 -135v102h139zM729 1253q1 -37 -27 -63t-66 -25q-38 0 -67 26q-29 27 -29 59t11 57q10 25 48 103t52 106h84l-76 -181q70 -14 70 -82z" />
    <glyph glyph-name="Hbar" unicode="&#x126;" horiz-adv-x="1525" 
d="M1184 1028h-842v-272h842v272zM1425 1028h-96v-1028h-145v623h-842v-623h-145v1028h-105v121h105v244h145v-244h842v244h145v-244h96v-121z" />
    <glyph glyph-name="hbar" unicode="&#x127;" horiz-adv-x="1183" 
d="M646 977q196 0 308 -118t111 -314v-545h-139v539q0 145 -79 227t-210 82q-197 0 -326 -176v-672h-139v1196h-113v104h113v154h139v-154h359v-104h-359v-362q139 143 335 143z" />
    <glyph glyph-name="Imacron" unicode="&#x12a;" horiz-adv-x="536" 
d="M342 1393v-1393h-145v1393h145zM551 1690v-115h-567v115h567z" />
    <glyph glyph-name="imacron" unicode="&#x12b;" horiz-adv-x="546" 
d="M342 946v-946h-139v946h139zM557 1286v-115h-567v115h567z" />
    <glyph glyph-name="Iogonek" unicode="&#x12e;" horiz-adv-x="536" 
d="M309 -389q-119 0 -191 59t-71 156q0 127 150 205v1362h145v-1393q-174 -55 -174 -160q0 -53 42 -84t118 -30q24 0 69 8l15 -109q-39 -14 -103 -14z" />
    <glyph glyph-name="iogonek" unicode="&#x12f;" horiz-adv-x="544" 
d="M311 -389q-119 0 -191 59t-71 156q0 129 154 207v913h139v-940l2 -6q-174 -55 -174 -160q0 -53 42 -84t118 -30q24 0 69 8l15 -109q-39 -14 -103 -14zM272 1210q-40 0 -68 27t-28 67t28 68t68 27q40 0 70 -28q29 -27 29 -67t-29 -67t-70 -27z" />
    <glyph glyph-name="Idotaccent" unicode="&#x130;" horiz-adv-x="536" 
d="M342 1393v-1393h-145v1393h145zM371 1678q0 -42 -30 -72t-72 -29q-43 0 -73 30q-30 29 -30 71t30 71t72 29t73 -29q30 -29 30 -71z" />
    <glyph glyph-name="dotlessi" unicode="&#x131;" horiz-adv-x="546" 
d="M344 946v-946h-141v946h141z" />
    <glyph glyph-name="IJ" unicode="&#x132;" horiz-adv-x="1755" 
d="M1579 1393v-891q0 -250 -136 -391q-135 -141 -353 -141t-351 115q-133 116 -159 312h147q19 -137 115 -215t246 -78t247 108q96 108 97 292v889h147zM342 1393v-1393h-145v1393h145z" />
    <glyph glyph-name="ij" unicode="&#x133;" horiz-adv-x="1071" 
d="M870 946v-928q0 -205 -78 -297t-272 -94l-10 123q123 4 171 60t48 194v942h141zM342 946v-946h-139v946h139zM799 1210q-41 0 -69 27t-28 67t28 68t69 27q41 0 69 -27q28 -28 27 -68q1 -40 -27 -67t-69 -27zM272 1210q-40 0 -68 27t-28 67t28 68t68 27q40 0 70 -28
q29 -27 29 -67t-29 -67t-70 -27z" />
    <glyph glyph-name="Kcommaaccent" unicode="&#x136;" horiz-adv-x="1441" 
d="M706.5 -135q38.5 0 66.5 -25.5t28 -60.5t-15.5 -69t-95.5 -195h-84l76 180q-70 14 -70 82q0 37 28 62.5t66.5 25.5zM342 0h-145v1393h145v-828l797 828h178l-600 -635l674 -758h-185l-592 651l-272 -286v-365z" />
    <glyph glyph-name="kcommaaccent" unicode="&#x137;" horiz-adv-x="1155" 
d="M586 -135q39 0 66.5 -25.5t27.5 -60.5t-15.5 -69t-95.5 -195h-84l76 180q-70 14 -69 82q0 37 27.5 62.5t66.5 25.5zM324 0h-140v1454h140v-1010l532 502h180l-411 -397l489 -549h-182l-408 453l-200 -193v-260z" />
    <glyph glyph-name="Lacute" unicode="&#x139;" horiz-adv-x="1183" 
d="M1118 131v-131h-921v1393h145v-1262h776zM326 1552h-131l165 291h156z" />
    <glyph glyph-name="lacute" unicode="&#x13a;" horiz-adv-x="483" 
d="M311 1454v-1454h-139v1454h139zM510 1929l-191 -291h-131l166 291h156z" />
    <glyph glyph-name="Lcommaaccent" unicode="&#x13b;" horiz-adv-x="1183" 
d="M659.5 -135q38.5 0 66.5 -25.5t28 -60.5t-15.5 -69t-95.5 -195h-84l76 180q-70 14 -70 82q0 37 28 62.5t66.5 25.5zM1118 131v-131h-921v1393h145v-1262h776z" />
    <glyph glyph-name="lcommaaccent" unicode="&#x13c;" horiz-adv-x="483" 
d="M139 -223q0 37 28 62.5t66.5 25.5t66.5 -25.5t28 -60.5t-15.5 -69t-95.5 -195h-84l76 180q-70 14 -70 82zM311 1454v-1454h-139v1454h139z" />
    <glyph glyph-name="Lcaron" unicode="&#x13d;" horiz-adv-x="1183" 
d="M772 1014h-108l20 379h141zM1118 131v-131h-921v1393h145v-1262h776z" />
    <glyph glyph-name="lcaron" unicode="&#x13e;" horiz-adv-x="509" 
d="M616 1454l-53 -379h-108l20 379h141zM311 1454v-1454h-139v1454h139z" />
    <glyph glyph-name="Ldot" unicode="&#x13f;" horiz-adv-x="1183" 
d="M762 561q-41 0 -70.5 28.5t-29.5 68.5t29.5 69t70.5 29t70.5 -29t29.5 -69t-29.5 -68.5t-70.5 -28.5zM1118 131v-131h-921v1393h145v-1262h776z" />
    <glyph glyph-name="ldot" unicode="&#x140;" horiz-adv-x="694" 
d="M507 551q-42 0 -71.5 28.5t-29.5 69.5t29.5 70t71.5 29t70.5 -29t28.5 -70t-28.5 -69.5t-70.5 -28.5zM311 1454v-1454h-139v1454h139z" />
    <glyph glyph-name="Lslash" unicode="&#x141;" horiz-adv-x="1183" 
d="M1118 131v-131h-921v508l-154 -76v129l154 76v756h145v-684l328 161v-127l-328 -161v-451h776z" />
    <glyph glyph-name="lslash" unicode="&#x142;" horiz-adv-x="483" 
d="M311 0h-139v631l-147 -74v145l147 74v678h139v-608l150 76v-146l-150 -76v-700z" />
    <glyph glyph-name="Nacute" unicode="&#x143;" horiz-adv-x="1572" 
d="M1376 1393v-1393h-125l-909 1130v-1130h-145v1393h120l914 -1143v1143h145zM842 1552h-131l166 291h155z" />
    <glyph glyph-name="nacute" unicode="&#x144;" horiz-adv-x="1196" 
d="M646.5 977q195.5 0 307 -118t111.5 -314v-545h-139v539q0 145 -79 227t-210 82q-197 0 -326 -176v-672h-139v946h139v-112q140 143 335.5 143zM672 1130h-131l166 291h155z" />
    <glyph glyph-name="Ncommaaccent" unicode="&#x145;" horiz-adv-x="1572" 
d="M747.5 -135q38.5 0 66.5 -25.5t28 -60.5t-15.5 -69t-95.5 -195h-84l76 180q-70 14 -70 82q0 37 28 62.5t66.5 25.5zM1376 1393v-1393h-125l-909 1130v-1130h-145v1393h120l914 -1143v1143h145z" />
    <glyph glyph-name="ncommaaccent" unicode="&#x146;" horiz-adv-x="1196" 
d="M616.5 -135q38.5 0 66.5 -25.5t28 -60.5t-15.5 -69t-95.5 -195h-84l76 180q-70 14 -70 82q0 37 28 62.5t66.5 25.5zM646.5 977q195.5 0 307 -118t111.5 -314v-545h-139v539q0 145 -79 227t-210 82q-197 0 -326 -176v-672h-139v946h139v-112q140 143 335.5 143z" />
    <glyph glyph-name="Ncaron" unicode="&#x147;" horiz-adv-x="1572" 
d="M1376 1393v-1393h-125l-909 1130v-1130h-145v1393h120l914 -1143v1143h145zM715 1548l-252 295h137l186 -207l187 207h137l-252 -295h-143z" />
    <glyph glyph-name="ncaron" unicode="&#x148;" horiz-adv-x="1196" 
d="M646.5 977q195.5 0 307 -118t111.5 -314v-545h-139v539q0 145 -79 227t-210 82q-197 0 -326 -176v-672h-139v946h139v-112q140 143 335.5 143zM543 1116l-252 295h137l186 -207l187 207h137l-252 -295h-143z" />
    <glyph glyph-name="Omacron" unicode="&#x14c;" horiz-adv-x="1718" 
d="M281 696q-1 -244 167 -417t411 -173t411 174t168 416q0 244 -168 417t-411 173t-411 -173t-167 -417zM860 1421q301 0 513 -212t212 -513t-212 -513t-513 -212t-513 212t-212 513t212 513t513 212zM1143 1690v-115h-568v115h568z" />
    <glyph glyph-name="omacron" unicode="&#x14d;" horiz-adv-x="1251" 
d="M627 96q154 0 258 110t104 266t-104 262q-104 108 -258 108t-258 -108q-105 -108 -105 -264t104 -264q104 -110 259 -110zM627 971q213 1 357 -143t144 -356t-144 -357t-357 -145t-359 144q-146 146 -145 358q-1 212 145 356t359 143zM909 1286v-115h-567v115h567z" />
    <glyph glyph-name="Ohungarumlaut" unicode="&#x150;" horiz-adv-x="1718" 
d="M281 696q-1 -244 167 -417t411 -173t411 174t168 416q0 244 -168 417t-411 173t-411 -173t-167 -417zM860 1421q301 0 513 -212t212 -513t-212 -513t-513 -212t-513 212t-212 513t212 513t513 212zM1212 1843l-172 -291h-120l147 291h145zM936 1843l-170 -291h-123
l145 291h148z" />
    <glyph glyph-name="ohungarumlaut" unicode="&#x151;" horiz-adv-x="1251" 
d="M627 96q154 0 258 110t104 266t-104 262q-104 108 -258 108t-258 -108q-105 -108 -105 -264t104 -264q104 -110 259 -110zM627 971q213 1 357 -143t144 -356t-144 -357t-357 -145t-359 144q-146 146 -145 358q-1 212 145 356t359 143zM979 1423l-172 -290h-121l148 290
h145zM702 1423l-170 -290h-122l145 290h147z" />
    <glyph glyph-name="OE" unicode="&#x152;" horiz-adv-x="2099" 
d="M256 696.5q0 -245.5 175 -403.5t456 -158l114 2v1118l-114 2q-281 0 -456 -157.5t-175 -403zM1145 1260v-500h741v-135h-741v-492h823v-133h-1081q-340 0 -559 197.5t-219 498.5t219 499t559 198h1081v-133h-823z" />
    <glyph glyph-name="oe" unicode="&#x153;" horiz-adv-x="2064" 
d="M626.5 96q153.5 0 258 109.5t104.5 265.5t-104.5 263.5t-258 107.5t-258 -107.5t-104.5 -263.5t104.5 -265.5t258 -109.5zM1473 850q-141 0 -234.5 -92t-110.5 -232h670q-12 145 -98 234.5t-227 89.5zM1931 418h-803q16 -139 111.5 -231.5t245.5 -92.5q205 0 274 146h150
q-41 -121 -157 -194t-263 -73t-258 63.5t-174 172.5q-66 -111 -179.5 -175.5t-250.5 -64.5q-213 0 -358.5 145.5t-145.5 357.5t145.5 355.5t358.5 143.5q135 0 249.5 -63.5t180.5 -172.5q63 109 173.5 172.5t250.5 63.5q201 0 330 -139.5t131 -354.5q0 -41 -3 -59l-8 4v-4z
" />
    <glyph glyph-name="Racute" unicode="&#x154;" horiz-adv-x="1380" 
d="M342 639h369q174 0 281.5 84t107.5 226t-107.5 226.5t-281.5 84.5h-369v-621zM342 506v-506h-145v1393h518q238 0 384 -121t146 -324q0 -168 -103.5 -281.5t-281.5 -148.5l447 -518h-183l-436 506h-346zM700 1552h-131l166 291h156z" />
    <glyph glyph-name="racute" unicode="&#x155;" horiz-adv-x="735" 
d="M311 946v-164q139 188 371 189v-133q-240 -6 -371 -220v-618h-139v946h139zM463 1130h-131l166 291h155z" />
    <glyph glyph-name="Rcommaaccent" unicode="&#x156;" horiz-adv-x="1380" 
d="M666 -135q39 0 66.5 -25.5t27.5 -60.5t-15.5 -69t-95.5 -195h-84l76 180q-70 14 -70 82q0 37 28 62.5t67 25.5zM342 639h369q174 0 281.5 84t107.5 226t-107.5 226.5t-281.5 84.5h-369v-621zM342 506v-506h-145v1393h518q238 0 384 -121t146 -324q0 -168 -103.5 -281.5
t-281.5 -148.5l447 -518h-183l-436 506h-346z" />
    <glyph glyph-name="rcommaaccent" unicode="&#x157;" horiz-adv-x="735" 
d="M237.5 -135q38.5 0 66.5 -25.5t28 -60.5t-15.5 -69t-95.5 -195h-84l76 180q-70 14 -70 82q0 37 28 62.5t66.5 25.5zM311 946v-164q139 188 371 189v-133q-240 -6 -371 -220v-618h-139v946h139z" />
    <glyph glyph-name="Rcaron" unicode="&#x158;" horiz-adv-x="1380" 
d="M342 639h369q174 0 281.5 84t107.5 226t-107.5 226.5t-281.5 84.5h-369v-621zM342 506v-506h-145v1393h518q238 0 384 -121t146 -324q0 -168 -103.5 -281.5t-281.5 -148.5l447 -518h-183l-436 506h-346zM571 1548l-252 295h138l186 -207l186 207h138l-252 -295h-144z" />
    <glyph glyph-name="rcaron" unicode="&#x159;" horiz-adv-x="735" 
d="M311 946v-164q139 188 371 189v-133q-240 -6 -371 -220v-618h-139v946h139zM334 1116l-252 295h137l187 -207l186 207h137l-252 -295h-143z" />
    <glyph glyph-name="Sacute" unicode="&#x15a;" horiz-adv-x="1351" 
d="M676 1423q221 0 369.5 -104.5t173.5 -302.5h-144q-25 133 -122 206.5t-262 73.5t-260 -71.5t-95 -192.5q0 -186 285 -237l210 -41q387 -74 388 -363q0 -190 -142.5 -306t-384.5 -116t-394.5 125t-176.5 350h143q27 -164 139.5 -254t290.5 -90t277.5 75t99.5 200
q0 190 -262 237l-242 47q-190 35 -287.5 128.5t-97.5 236.5q0 180 136.5 289.5t357.5 109.5zM924 1843l-191 -291h-131l166 291h156z" />
    <glyph glyph-name="sacute" unicode="&#x15b;" horiz-adv-x="1079" 
d="M553 86q117 0 187.5 46t70.5 114q0 135 -164 157l-215 37q-281 43 -280 254q0 127 104 204t270 77t284 -75t130 -226h-129q-14 92 -87 140t-189 48t-181 -44t-65 -113q0 -119 186 -148l189 -33q283 -47 282 -262q0 -135 -110.5 -214t-291.5 -79t-296.5 82t-138.5 242h131
q45 -207 313 -207zM786 1421l-190 -291h-131l166 291h155z" />
    <glyph glyph-name="Scedilla" unicode="&#x15e;" horiz-adv-x="1351" 
d="M672 -440h-123l94 295h139zM676 1423q221 0 369.5 -104.5t173.5 -302.5h-144q-25 133 -122 206.5t-262 73.5t-260 -71.5t-95 -192.5q0 -186 285 -237l210 -41q387 -74 388 -363q0 -190 -142.5 -306t-384.5 -116t-394.5 125t-176.5 350h143q27 -164 139.5 -254t290.5 -90
t277.5 75t99.5 200q0 190 -262 237l-242 47q-190 35 -287.5 128.5t-97.5 236.5q0 180 136.5 289.5t357.5 109.5z" />
    <glyph glyph-name="scedilla" unicode="&#x15f;" horiz-adv-x="1079" 
d="M512 -440h-123l94 295h140zM553 86q117 0 187.5 46t70.5 114q0 135 -164 157l-215 37q-281 43 -280 254q0 127 104 204t270 77t284 -75t130 -226h-129q-14 92 -87 140t-189 48t-181 -44t-65 -113q0 -119 186 -148l189 -33q283 -47 282 -262q0 -135 -110.5 -214
t-291.5 -79t-296.5 82t-138.5 242h131q45 -207 313 -207z" />
    <glyph glyph-name="Scaron" unicode="&#x160;" horiz-adv-x="1351" 
d="M676 1423q221 0 369.5 -104.5t173.5 -302.5h-144q-25 133 -122 206.5t-262 73.5t-260 -71.5t-95 -192.5q0 -186 285 -237l210 -41q387 -74 388 -363q0 -190 -142.5 -306t-384.5 -116t-394.5 125t-176.5 350h143q27 -164 139.5 -254t290.5 -90t277.5 75t99.5 200
q0 190 -262 237l-242 47q-190 35 -287.5 128.5t-97.5 236.5q0 180 136.5 289.5t357.5 109.5zM999 1843l-251 -295h-144l-252 295h137l187 -207l186 207h137z" />
    <glyph glyph-name="scaron" unicode="&#x161;" horiz-adv-x="1079" 
d="M553 86q117 0 187.5 46t70.5 114q0 135 -164 157l-215 37q-281 43 -280 254q0 127 104 204t270 77t284 -75t130 -226h-129q-14 92 -87 140t-189 48t-181 -44t-65 -113q0 -119 186 -148l189 -33q283 -47 282 -262q0 -135 -110.5 -214t-291.5 -79t-296.5 82t-138.5 242h131
q45 -207 313 -207zM864 1411l-252 -295h-143l-252 295h137l187 -207l186 207h137z" />
    <glyph glyph-name="Tcedilla" unicode="&#x162;" horiz-adv-x="1300" 
d="M582 -145h139l-111 -295h-123zM1241 1260h-518v-1260h-145v1260h-519v133h1182v-133z" />
    <glyph glyph-name="tcedilla" unicode="&#x163;" horiz-adv-x="880" 
d="M469 -145h139l-110 -295h-123zM586 -31q-328 0 -328 371v485h-252v121h252v350h139v-350h359v-121h-359v-485q0 -127 51.5 -184.5t141.5 -57.5t178 25l23 -121q-115 -33 -205 -33z" />
    <glyph glyph-name="Tcaron" unicode="&#x164;" horiz-adv-x="1300" 
d="M1241 1260h-518v-1260h-145v1260h-519v133h1182v-133zM578 1548l-252 295h137l186 -207l187 207h137l-252 -295h-143z" />
    <glyph glyph-name="tcaron" unicode="&#x165;" horiz-adv-x="880" 
d="M586 -31q-328 0 -328 371v485h-252v121h252v350h139v-350h359v-121h-359v-485q0 -127 51.5 -184.5t141.5 -57.5t178 25l23 -121q-115 -33 -205 -33zM641 1079h-109l21 379h141z" />
    <glyph glyph-name="Umacron" unicode="&#x16a;" horiz-adv-x="1536" 
d="M1362 1393v-801q0 -276 -164 -450t-429 -173q-265 0 -429 173t-164 450v801h146v-801q0 -211 124 -349q124 -139 322 -139q199 0 324 138t125 350v801h145zM1051 1690v-115h-568v115h568z" />
    <glyph glyph-name="umacron" unicode="&#x16b;" horiz-adv-x="1196" 
d="M1022 946v-946h-139v111q-141 -141 -335 -141t-305 116q-112 117 -112 313v547h139v-538q0 -148 79 -230t210 -82q90 0 176 46t148 130v674h139zM868 1171h-567v115h567v-115z" />
    <glyph glyph-name="Uring" unicode="&#x16e;" horiz-adv-x="1536" 
d="M1362 1393v-801q0 -276 -164 -450t-429 -173q-265 0 -429 173t-164 450v801h146v-801q0 -211 124 -349q124 -139 322 -139q199 0 324 138t125 350v801h145zM770 1655q51 0 84 34t33 84t-33 84q-33 33 -84 33t-85 -34t-34 -83q0 -50 34 -84t85 -34zM770 1968q90 0 146 -54
t56 -140t-56 -142q-58 -56 -147 -55q-89 0 -146 55q-57 56 -57 142t56 140q58 54 148 54z" />
    <glyph glyph-name="uring" unicode="&#x16f;" horiz-adv-x="1196" 
d="M1022 946v-946h-139v111q-141 -141 -335 -141t-305 116q-112 117 -112 313v547h139v-538q0 -148 79 -230t210 -82q90 0 176 46t148 130v674h139zM588 1430q-51 0 -85 -34t-34 -84t34 -84t85 -34t84 34t33 84t-33 84t-84 34zM587 1116q-89 0 -147 55q-57 55 -57 141
t57 141q58 54 148 54t146 -54t56 -140q0 -85 -56 -141q-58 -56 -147 -56z" />
    <glyph glyph-name="Uhungarumlaut" unicode="&#x170;" horiz-adv-x="1536" 
d="M1362 1393v-801q0 -276 -164 -450t-429 -173q-265 0 -429 173t-164 450v801h146v-801q0 -211 124 -349q124 -139 322 -139q199 0 324 138t125 350v801h145zM1120 1843l-172 -291h-121l148 291h145zM844 1843l-170 -291h-123l145 291h148z" />
    <glyph glyph-name="uhungarumlaut" unicode="&#x171;" horiz-adv-x="1196" 
d="M1022 946v-946h-139v111q-141 -141 -335 -141t-305 116q-112 117 -112 313v547h139v-538q0 -148 79 -230t210 -82q90 0 176 46t148 130v674h139zM645 1133l148 290h145l-172 -290h-121zM492 1133h-123l145 290h148z" />
    <glyph glyph-name="Uogonek" unicode="&#x172;" horiz-adv-x="1536" 
d="M1362 1393v-801q0 -211 -98 -366t-271 -218q-156 -100 -155 -194q0 -55 41 -88t97 -33t89 8l14 -121q-45 -12 -104 -12q-117 0 -188 59t-71 155t97 189l-45 -2q-264 0 -428 173t-164 450v801h146v-801q0 -211 124 -349q124 -139 322 -139q199 0 324 138t125 350v801h145z
" />
    <glyph glyph-name="uogonek" unicode="&#x173;" horiz-adv-x="1196" 
d="M991 -389q-119 0 -191 59t-71 156q0 129 154 207v78q-141 -141 -335 -141t-305 116q-112 117 -112 313v547h139v-538q0 -148 79 -230t210 -82q90 0 176 46t148 130v674h139v-940l2 -6q-174 -55 -174 -160q0 -53 42 -84t118 -30q24 0 69 8l15 -109q-39 -14 -103 -14z" />
    <glyph glyph-name="Wcircumflex" unicode="&#x174;" horiz-adv-x="2183" 
d="M1622 -10h-143l-387 1149l-390 -1149h-141l-477 1403h152l395 -1184l397 1184h127l395 -1182l396 1182h151l-475 -1399v-4zM905 1556h-137l252 295h143l252 -295h-137l-186 205z" />
    <glyph glyph-name="wcircumflex" unicode="&#x175;" horiz-adv-x="1595" 
d="M1526 946l-357 -946h-127l-243 721l-244 -721h-127l-356 946h151l266 -727l246 727h125l246 -725l268 725h152zM612 1116h-137l252 295h143l252 -295h-137l-186 205z" />
    <glyph glyph-name="Ycircumflex" unicode="&#x176;" horiz-adv-x="1359" 
d="M756 0h-148v498h-2l-575 895h162l487 -760l489 760h162l-575 -895v-498zM494 1556h-138l252 295h144l252 -295h-138l-186 205z" />
    <glyph glyph-name="ycircumflex" unicode="&#x177;" horiz-adv-x="1212" 
d="M1130 946l-661 -1454h-150l209 459l-483 995h152l405 -833l379 833h149zM414 1116h-138l252 295h144l252 -295h-138l-186 205z" />
    <glyph glyph-name="Ydieresis" unicode="&#x178;" horiz-adv-x="1359" 
d="M756 0h-148v498h-2l-575 895h162l487 -760l489 760h162l-575 -895v-498zM973 1673q0 -41 -30 -69t-72 -29q-43 0 -71 29q-28 30 -28 70t29 69t71 29t71 -29q30 -29 30 -70zM590 1673q0 -41 -30 -69t-72 -29q-42 0 -70 29q-28 30 -29 70q0 40 29 69q28 29 70 29t72 -29
t30 -70z" />
    <glyph glyph-name="Zacute" unicode="&#x179;" horiz-adv-x="1339" 
d="M1208 133v-133h-1085v76l872 1184h-845v133h1054v-76l-4 -2l-852 -1182h860zM727 1552h-131l166 291h156z" />
    <glyph glyph-name="zacute" unicode="&#x17a;" horiz-adv-x="1009" 
d="M911 119v-119h-813v72l613 753h-590v121h790v-82l-606 -745h606zM561 1130h-131l166 291h156z" />
    <glyph glyph-name="Zdotaccent" unicode="&#x17b;" horiz-adv-x="1339" 
d="M1208 133v-133h-1085v76l872 1184h-845v133h1054v-76l-4 -2l-852 -1182h860zM672 1575q-41 0 -71 29q-30 30 -30 70t30 69t71 29q40 0 70 -29t30 -70t-30 -69t-70 -29z" />
    <glyph glyph-name="zdotaccent" unicode="&#x17c;" horiz-adv-x="1009" 
d="M911 119v-119h-813v72l613 753h-590v121h790v-82l-606 -745h606zM506 1176q-41 0 -71 28t-29 70q0 42 30 70t70 28q41 0 71 -29q29 -29 29 -69t-29 -70q-30 -28 -71 -28z" />
    <glyph glyph-name="Zcaron" unicode="&#x17d;" horiz-adv-x="1339" 
d="M1208 133v-133h-1085v76l872 1184h-845v133h1054v-76l-4 -2l-852 -1182h860zM598 1548l-252 295h137l187 -207l186 207h137l-252 -295h-143z" />
    <glyph glyph-name="zcaron" unicode="&#x17e;" horiz-adv-x="1009" 
d="M911 119v-119h-813v72l613 753h-590v121h790v-82l-606 -745h606zM432 1116l-252 295h137l187 -207l186 207h137l-252 -295h-143z" />
    <glyph glyph-name="florin" unicode="&#x192;" horiz-adv-x="1009" 
d="M791 1274q-188 0 -220 -227l-41 -295h349v-119h-365l-57 -453q-19 -166 -107 -261t-233 -95q-98 0 -197 29l23 120q86 -20 149 -20q190 0 221 227l58 453h-265v119h281l41 295q23 166 108 261t232 95q96 0 195 -29l-21 -121q-85 21 -151 21z" />
    <glyph glyph-name="Acaron" unicode="&#x1cd;" horiz-adv-x="1527" 
d="M1071 539l-307 690l-305 -690h612zM1130 406h-731l-180 -406h-156l633 1403h138l632 -1403h-155zM692 1548l-252 295h138l186 -207l186 207h137l-251 -295h-144z" />
    <glyph glyph-name="acaron" unicode="&#x1ce;" horiz-adv-x="1267" 
d="M631 96q203 0 323 172v408q-121 172 -323 172q-156 0 -261 -111q-106 -111 -106 -265t106 -266q106 -110 261 -110zM1094 946v-946h-140v104q-137 -131 -341 -131q-204 -1 -347 145t-143 354t143 353t347 145t341 -130v106h140zM580 1116l-252 295h137l186 -207l187 207
h137l-252 -295h-143z" />
    <glyph glyph-name="Scommaaccent" unicode="&#x218;" horiz-adv-x="1351" 
d="M598 -223q0 37 27.5 62.5t65.5 25.5t66.5 -25.5t28.5 -58.5t-14 -68t-96 -198h-84l76 180q-70 14 -70 82zM676 1423q221 0 369.5 -104.5t173.5 -302.5h-144q-25 133 -122 206.5t-262 73.5t-260 -71.5t-95 -192.5q0 -186 285 -237l210 -41q387 -74 388 -363
q0 -190 -142.5 -306t-384.5 -116t-394.5 125t-176.5 350h143q27 -164 139.5 -254t291 -90t277.5 75t99 200q0 190 -262 237l-242 47q-190 35 -287.5 128.5t-97.5 236.5q0 180 136.5 289.5t357.5 109.5z" />
    <glyph glyph-name="scommaaccent" unicode="&#x219;" horiz-adv-x="1079" 
d="M504 -135q39 0 66.5 -25.5t27.5 -60.5t-15.5 -69t-95.5 -195h-84l76 180q-70 14 -69 82q0 37 27.5 62.5t66.5 25.5zM553 86q117 0 187.5 46t70.5 114q0 135 -164 157l-215 37q-281 43 -280 254q0 127 104 204t270 77t284 -75t130 -226h-129q-14 92 -87 140t-189 48
t-181 -44t-65 -113q0 -119 186 -148l189 -33q283 -47 282 -262q0 -135 -110.5 -214t-291.5 -79t-296.5 82t-138.5 242h131q45 -207 313 -207z" />
    <glyph glyph-name="uni021A" unicode="&#x21a;" horiz-adv-x="1300" 
d="M627 -135q39 0 66.5 -25.5t27.5 -60.5t-15.5 -69t-95.5 -195h-84l76 180q-70 14 -70 82q0 37 28 62.5t67 25.5zM1241 1260h-518v-1260h-145v1260h-519v133h1182v-133z" />
    <glyph glyph-name="uni021B" unicode="&#x21b;" horiz-adv-x="880" 
d="M489.5 -135q38.5 0 66.5 -25.5t28 -60.5t-15.5 -69t-95.5 -195h-84l76 180q-70 14 -70 82q0 37 28 62.5t66.5 25.5zM586 -31q-328 0 -328 371v485h-252v121h252v350h139v-350h359v-121h-359v-485q0 -127 51.5 -184.5t141.5 -57.5t178 25l23 -121q-115 -33 -205 -33z" />
    <glyph glyph-name="circumflex" unicode="&#x2c6;" 
d="M614 1356l-186 -205h-137l252 295h143l252 -295h-137z" />
    <glyph glyph-name="caron" unicode="&#x2c7;" 
d="M938 1446l-252 -295h-143l-252 295h137l186 -207l187 207h137z" />
    <glyph glyph-name="breve" unicode="&#x2d8;" 
d="M799 1411h106q0 -137 -83 -211t-208 -74q-126 0 -208 74t-82 211h106q0 -92 54 -139t130 -47t130 47t55 139z" />
    <glyph glyph-name="dotaccent" unicode="&#x2d9;" 
d="M614 1153q-40 0 -70 29q-30 30 -30 70t30 69t70 29t71 -29q30 -29 30 -70t-30 -69t-71 -29z" />
    <glyph glyph-name="ring" unicode="&#x2da;" 
d="M612 1217q51 -1 84 33t33 84t-33 84t-84 34t-85 -34q-33 -34 -33 -84t33 -84q34 -33 85 -33zM612 1530q90 0 146 -54t57 -140q0 -86 -57 -142q-56 -55 -146 -55t-147 55t-57 141q0 87 57 141t147 54z" />
    <glyph glyph-name="ogonek" unicode="&#x2db;" 
d="M733 -279q25 0 70 9l14 -109q-39 -14 -102 -14q-119 0 -191 59q-72 60 -72 154t78 158t195 92l23 -74q-174 -55 -175 -160q0 -53 42 -84t118 -31z" />
    <glyph glyph-name="tilde" unicode="&#x2dc;" 
d="M811 1399h115q0 -93 -50 -149t-116 -55t-129 36l-86 57q-57 39 -103 19t-45 -80h-114q0 94 52 148t118 51t125 -33l86 -56q63 -41 105 -20t42 82z" />
    <glyph glyph-name="hungarumlaut" unicode="&#x2dd;" 
d="M977 1446l-172 -291h-121l147 291h146zM700 1446l-170 -291h-122l145 291h147z" />
    <glyph glyph-name="uni0326" unicode="&#x326;" horiz-adv-x="0" 
d="M592 -135q39 0 66.5 -25.5t27.5 -60.5t-15.5 -69t-95.5 -195h-83l75 180q-70 14 -69 82q0 37 27.5 62.5t66.5 25.5z" />
    <glyph glyph-name="Wgrave" unicode="&#x1e80;" horiz-adv-x="2183" 
d="M1622 -10h-143l-387 1149l-390 -1149h-141l-477 1403h152l395 -1184l397 1184h127l395 -1182l396 1182h151l-475 -1399v-4zM1047 1552l-191 291h156l166 -291h-131z" />
    <glyph glyph-name="wgrave" unicode="&#x1e81;" horiz-adv-x="1595" 
d="M1526 946l-357 -946h-127l-243 721l-244 -721h-127l-356 946h151l266 -727l246 727h125l246 -725l268 725h152zM754 1133l-191 290h156l166 -290h-131z" />
    <glyph glyph-name="Wacute" unicode="&#x1e82;" horiz-adv-x="2183" 
d="M1622 -10h-143l-387 1149l-390 -1149h-141l-477 1403h152l395 -1184l397 1184h127l395 -1182l396 1182h151l-475 -1399v-4zM1147 1552h-131l166 291h155z" />
    <glyph glyph-name="wacute" unicode="&#x1e83;" horiz-adv-x="1595" 
d="M1526 946l-357 -946h-127l-243 721l-244 -721h-127l-356 946h151l266 -727l246 727h125l246 -725l268 725h152zM854 1130h-131l166 291h155z" />
    <glyph glyph-name="Wdieresis" unicode="&#x1e84;" horiz-adv-x="2183" 
d="M1622 -10h-143l-387 1149l-390 -1149h-141l-477 1403h152l395 -1184l397 1184h127l395 -1182l396 1182h151l-475 -1399v-4zM1283 1575q-42 0 -71 29q-28 30 -28 70t28 69q29 29 71 29t72 -29q29 -29 29 -70t-30 -69t-71 -29zM900 1575q-42 0 -71 29q-29 30 -29 70t29 69
t71 29t72 -29t30 -70t-30 -69t-72 -29z" />
    <glyph glyph-name="wdieresis" unicode="&#x1e85;" horiz-adv-x="1595" 
d="M1526 946l-357 -946h-127l-243 721l-244 -721h-127l-356 946h151l266 -727l246 727h125l246 -725l268 725h152zM1092 1274q0 -40 -30 -70q-30 -28 -72 -28t-70 28t-29 70q0 42 29 70q28 28 70 28t72 -29t30 -69zM709 1274q0 -40 -30 -70q-30 -28 -72 -28q-43 0 -71 28
t-28 70t29 70t71 28t71 -29q30 -29 30 -69z" />
    <glyph glyph-name="Ygrave" unicode="&#x1ef2;" horiz-adv-x="1359" 
d="M756 0h-148v498h-2l-575 895h162l487 -760l489 760h162l-575 -895v-498zM635 1552l-191 291h156l166 -291h-131z" />
    <glyph glyph-name="ygrave" unicode="&#x1ef3;" horiz-adv-x="1212" 
d="M1130 946l-661 -1454h-150l209 459l-483 995h152l405 -833l379 833h149zM555 1133l-190 290h155l166 -290h-131z" />
    <glyph glyph-name="endash" unicode="&#x2013;" horiz-adv-x="1497" 
d="M1257 627v-140h-1017v140h1017z" />
    <glyph glyph-name="emdash" unicode="&#x2014;" horiz-adv-x="1941" 
d="M1759 627v-140h-1577v140h1577z" />
    <glyph glyph-name="quoteleft" unicode="&#x2018;" horiz-adv-x="376" 
d="M158 948q-40 0 -69 27q-28 27 -28 63t31 97l111 258h88l-101 -273q63 -18 64 -80q0 -40 -28 -66t-68 -26z" />
    <glyph glyph-name="quoteright" unicode="&#x2019;" horiz-adv-x="399" 
d="M123 1302q0 48 28 76q29 28 69 27q40 0 68 -28q28 -27 28 -61t-31 -99l-111 -256h-90l102 270q-63 23 -63 71z" />
    <glyph glyph-name="quotesinglbase" unicode="&#x201a;" horiz-adv-x="399" 
d="M123 68q0 38 27 66q28 28 68 28t68 -27t28 -63t-29 -97l-111 -258h-90l100 273q-61 18 -61 78z" />
    <glyph glyph-name="quotedblleft" unicode="&#x201c;" horiz-adv-x="731" 
d="M606 1040q0 -40 -28 -66t-67 -26q-40 0 -68 27q-27 27 -27 63t28 97l111 258h90l-100 -273q61 -18 61 -80zM276 1040q0 -40 -28 -66t-68 -26t-68 27t-28 61t31 99l110 258h90l-100 -273q61 -18 61 -80z" />
    <glyph glyph-name="quotedblright" unicode="&#x201d;" horiz-adv-x="731" 
d="M455 1302q-1 48 27 76t69 27q41 0 69 -28q28 -27 28 -61t-32 -99l-110 -256h-90l102 270q-63 23 -63 71zM123 1302q0 48 28 76q29 28 69 27q40 0 68 -28q28 -27 28 -61t-31 -99l-111 -256h-90l102 270q-63 23 -63 71z" />
    <glyph glyph-name="quotedblbase" unicode="&#x201e;" horiz-adv-x="733" 
d="M457 68q-1 38 27 66t69 28t69 -28t28 -64t-32 -95l-110 -258h-88l100 273q-63 18 -63 78zM123 68q0 38 27 66q28 28 68 28t68 -27t28 -63t-29 -97l-111 -258h-90l100 273q-61 18 -61 78z" />
    <glyph glyph-name="dagger" unicode="&#x2020;" horiz-adv-x="831" 
d="M465 1128v-450h-100v450h-254v101h254v254h100v-254h256v-101h-256z" />
    <glyph glyph-name="daggerdbl" unicode="&#x2021;" horiz-adv-x="831" 
d="M465 1008h256v-101h-256v-229h-100v229h-254v101h254v163h-254v99h254v213h100v-213h256v-99h-256v-163z" />
    <glyph glyph-name="bullet" unicode="&#x2022;" horiz-adv-x="651" 
d="M561 608q-1 -94 -71 -164t-165 -69q-95 -1 -165 69t-70 164t70 164t165 70t165 -70t71 -164z" />
    <glyph glyph-name="ellipsis" unicode="&#x2026;" horiz-adv-x="1173" 
d="M993 -27q-41 0 -69 28t-27 67q0 38 28 66q29 28 69 28t68 -28t28 -66t-28 -67q-28 -28 -69 -28zM582 -27q-41 0 -69 28t-28 67q0 38 28 66t69 28q42 0 70 -28t28 -66t-28 -67q-28 -28 -70 -28zM180 -27q-40 0 -68 28t-28 67q0 38 28 66t68 28t69 -28q27 -28 27 -66
t-28 -67q-28 -28 -68 -28z" />
    <glyph glyph-name="perthousand" unicode="&#x2030;" horiz-adv-x="3139" 
d="M2570 76q115 0 195 81t80 201t-80 200q-80 79 -195 79q-114 0 -194 -79t-80 -200q0 -122 80 -202t194 -80zM1651 76q115 0 195 81t79 201q0 120 -80 200q-81 79 -195 79t-194 -79t-80 -200q0 -122 80 -202t195 -80zM2570 743q164 -1 275 -109t111 -277t-112 -279
q-110 -110 -274 -109q-164 0 -274 110q-110 111 -111 279q1 168 111 276t274 109zM1651 743q165 -1 275 -109t110 -277t-111 -279t-275 -109q-164 0 -274 110q-110 111 -110 279t110 277q111 108 275 108zM571 756q115 0 195 80t80 200t-80 201q-80 80 -195 80t-195 -80
t-79 -201q-1 -120 79 -200t195 -80zM692 0h-108l927 1393h109zM571 1423q164 1 275 -109q110 -110 110 -278t-110 -278t-275 -109q-165 0 -275 110q-110 109 -110 277t110 278t275 109z" />
    <glyph glyph-name="guilsinglleft" unicode="&#x2039;" horiz-adv-x="546" 
d="M455 819l-224 -303l224 -303h-140l-223 303l223 303h140z" />
    <glyph glyph-name="guilsinglright" unicode="&#x203a;" horiz-adv-x="546" 
d="M455 516l-224 -303h-139l223 303l-223 303h139z" />
    <glyph glyph-name="fraction" unicode="&#x2044;" horiz-adv-x="913" 
d="M47 0h-108l927 1393h109z" />
    <glyph glyph-name="zerosuperior" unicode="&#x2070;" horiz-adv-x="890" 
d="M444 713q117 0 183 86q65 86 65 218t-65 219q-66 87 -182 87q-115 0 -181 -87t-66 -219t65 -218q64 -86 181 -86zM84 1017q0 177 97 291t264 115q167 0 264 -114q96 -115 96 -293t-96 -292q-95 -114 -263 -114t-265 115t-97 292z" />
    <glyph glyph-name="foursuperior" unicode="&#x2074;" horiz-adv-x="821" 
d="M758 795h-123v-164h-109v164h-434v71l244 545h115l-228 -518h303v240h109v-240h123v-98z" />
    <glyph glyph-name="fivesuperior" unicode="&#x2075;" horiz-adv-x="774" 
d="M242 1120h145q133 0 208 -68t75 -179t-81 -185t-210 -74t-209 60t-98 168h110q33 -131 195 -131q84 0 136 46q52 45 52 115t-48 111t-132 41l-143 -2h-103v389h492v-100h-389v-191z" />
    <glyph glyph-name="sixsuperior" unicode="&#x2076;" horiz-adv-x="761" 
d="M374 1059q-88 0 -140 -51t-52 -126t56 -126t140 -51q85 0 139 50t54 128t-54 127t-143 49zM381 1157q133 0 217 -76q84 -75 84 -193t-85 -196t-218 -78t-219 78t-86 180t69 201l242 338h131l-180 -256q14 2 45 2z" />
    <glyph glyph-name="sevensuperior" unicode="&#x2077;" horiz-adv-x="641" 
d="M606 1411v-70l-362 -710h-127l342 674h-418v106h565z" />
    <glyph glyph-name="eightsuperior" unicode="&#x2078;" horiz-adv-x="804" 
d="M217 848q0 -64 51 -104t134 -39q83 0 135 39q51 40 51 104t-51 104q-51 39 -135 39t-134 -39q-51 -40 -51 -104zM402 1335q-72 0 -118 -38t-46 -97t46 -95t118 -36t119 36q46 36 46 95t-47 97t-118 38zM402 610q-140 0 -224 65t-84 169q0 135 144 194q-111 56 -111 160
t78 164q77 60 197 61q120 0 198 -60t78 -155q0 -119 -111 -170q143 -59 144 -194q0 -104 -84 -169q-85 -65 -225 -65z" />
    <glyph glyph-name="ninesuperior" unicode="&#x2079;" horiz-adv-x="761" 
d="M384 1343q-85 0 -139 -50q-55 -50 -55 -128t54 -127t144 -49q89 0 140 51t51 126q1 75 -55 126t-140 51zM383 1434q133 0 219 -78t86 -180t-70 -201l-241 -338h-131l180 256q-14 -2 -45 -2q-133 0 -217 76q-84 75 -84 193t85 196t218 78z" />
    <glyph glyph-name="zeroinferior" unicode="&#x2080;" horiz-adv-x="890" 
d="M457 -283q117 0 183 86t65 218q0 131 -66 219q-65 88 -181 88t-182 -87t-66 -219t66 -219q64 -86 181 -86zM458 428q167 0 263 -115t96 -293t-96 -292t-263 -113q-167 0 -264 115q-98 116 -98 292t98 291t264 115z" />
    <glyph glyph-name="oneinferior" unicode="&#x2081;" horiz-adv-x="634" 
d="M608 -274v-95h-547v95h228v557l-215 -60v96l262 80h59v-673h213z" />
    <glyph glyph-name="twoinferior" unicode="&#x2082;" horiz-adv-x="735" 
d="M651 -274v-95h-551v60l277 276q84 82 117 127q32 45 32 101q0 55 -43 95t-115 40t-116 -38q-43 -38 -47 -104h-111q6 111 77 176q71 64 196 64t197 -66t73 -148q0 -82 -38 -145q-38 -62 -130 -153l-186 -190h368z" />
    <glyph glyph-name="threeinferior" unicode="&#x2083;" horiz-adv-x="759" 
d="M666 -156q0 -100 -79 -165t-204 -65t-203 59q-78 58 -92 159h111q10 -53 59 -86t127 -33t126 36t48 96q0 59 -47 95t-131 35h-68v91h68q67 0 109 36t42 96q0 58 -42 94t-112 36t-110 -32q-41 -32 -49 -85h-108q10 98 79 157q70 58 188 58t190 -64t71 -172
q0 -108 -96 -165q123 -51 123 -181z" />
    <glyph glyph-name="fourinferior" unicode="&#x2084;" horiz-adv-x="821" 
d="M758 -205h-123v-164h-109v164h-434v72l244 545h115l-228 -518h303v239h109v-239h123v-99z" />
    <glyph glyph-name="fiveinferior" unicode="&#x2085;" horiz-adv-x="774" 
d="M242 121h145q133 0 208 -68q75 -67 75 -179t-81 -186t-210 -73q-129 0 -209 60t-98 167h110q33 -131 195 -131q84 0 136 46t52 116t-48 111t-132 41l-143 -2h-103v389h492v-101h-389v-190z" />
    <glyph glyph-name="sixinferior" unicode="&#x2086;" horiz-adv-x="761" 
d="M374 59q-88 0 -140 -51t-52 -126t56 -126t140 -51q85 0 139 50t54 128t-54 127t-143 49zM381 158q133 0 217 -76t84 -194t-85 -196t-218 -77q-133 0 -219 78t-86 179t69 202l242 338h131l-180 -256q14 2 45 2z" />
    <glyph glyph-name="seveninferior" unicode="&#x2087;" horiz-adv-x="641" 
d="M606 412v-70l-362 -711h-127l342 674h-418v107h565z" />
    <glyph glyph-name="eightinferior" unicode="&#x2088;" horiz-adv-x="804" 
d="M402 -291q83 0 135 40q51 41 51 105t-51 103t-135 39t-134 -39q-51 -39 -51 -103t51 -105q51 -40 134 -40zM402 340q-72 0 -118 -38t-46 -97t46 -95t118 -36t119 36q46 36 46 95t-47 97t-118 38zM94 -152q0 135 144 195q-111 57 -111 161t78 164q77 60 197 60t198 -60
t78 -155q0 -119 -111 -170q143 -59 144 -195q0 -104 -84 -169q-85 -65 -225 -65t-224 66q-84 64 -84 168z" />
    <glyph glyph-name="nineinferior" unicode="&#x2089;" horiz-adv-x="761" 
d="M384 340q-85 0 -139 -50q-55 -50 -55 -128t54 -127t144 -49q89 0 140 51t51 126q1 75 -55 126t-140 51zM383 430q133 0 219 -78t86 -179t-70 -202l-241 -338h-131l180 256q-14 -2 -45 -2q-133 0 -217 76t-84 194q0 117 85 195t218 78z" />
    <glyph glyph-name="Euro" unicode="&#x20ac;" horiz-adv-x="1810" 
d="M1020 111q188 0 325 102q136 102 181 276h151q-51 -233 -230 -375t-427 -142t-436 138t-258 361h-238v104h213q-10 66 -10 108t4 95h-207v105h225q61 239 255 389t447 150t432 -143q179 -142 230 -376h-151q-45 175 -181 277t-331 102t-343 -110t-204 -289h678l-27 -105
h-674q-6 -41 -6 -92t13 -111h618l-27 -104h-563q63 -164 208 -262t333 -98z" />
    <glyph glyph-name="uni2116" unicode="&#x2116;" horiz-adv-x="2859" 
d="M1683 125h955v-125h-955v125zM2523 808q0 154 -103 264q-103 108 -258 108t-259 -108q-105 -108 -105 -264t104 -264q104 -110 260 -110q155 0 258 110t103 264zM2664 808q0 -212 -145 -358t-357 -145q-212 -1 -358 145t-145 358q0 212 145 355q146 143 358 143t357 -142
q145 -144 145 -356zM1231 1393h145v-1393h-125l-909 1130v-1130h-145v1393h120l914 -1143v1143z" />
    <glyph glyph-name="uni2117" unicode="&#x2117;" horiz-adv-x="1759" 
d="M739 989v-313h183q90 0 143 43t53 113t-54 114q-54 43 -142 43h-183zM649 1075h273q131 1 211 -67q79 -68 79 -177t-80 -173t-212 -64h-181v-256h-90v737zM879 1325q-261 0 -451 -182q-190 -183 -190 -447t189 -446t451 -182t453 182q190 182 191 446q0 264 -190 446
t-453 183zM881 1423q307 0 526 -209t219 -518t-219 -518t-526 -209t-527 209q-219 209 -219 518t219 518q220 209 527 209z" />
    <glyph glyph-name="trademark" unicode="&#x2122;" horiz-adv-x="1398" 
d="M1294 1391v-598h-86v419l-207 -340h-47l-209 342l3 -421h-86v598h69l248 -398l246 398h69zM575 1391v-82h-221v-516h-84v516h-221v82h526z" />
    <glyph glyph-name="oneeighth" unicode="&#x215b;" horiz-adv-x="1839" 
d="M1437 78q83 0 135 40t52 104t-52 104t-135 39q-83 0 -134 -39t-51 -104q0 -64 50 -104q52 -40 135 -40zM1437 442q73 0 119 36t46 95t-47 97t-118 39q-71 0 -118 -38q-47 -37 -47 -97t46 -96t119 -36zM1745 217q0 -104 -84 -169q-84 -64 -224 -64t-225 64q-84 65 -84 169
q0 137 146 195q-111 56 -111 160t77 164t197 60q119 0 197 -60t78 -154q1 -119 -110 -170q143 -59 143 -195zM61 616v95h228v557l-215 -60v97l262 79h59v-673h213v-95h-547zM1415 1393l-928 -1393h-108l928 1393h108z" />
    <glyph glyph-name="threeeighths" unicode="&#x215c;" horiz-adv-x="1818" 
d="M1231 222q0 -64 51 -104t134 -40t135 40q53 40 53 104t-52 104t-136 39q-83 0 -134 -39t-51 -104zM1581 573q0 59 -47 97t-118 39q-71 0 -118 -38q-47 -37 -47 -97t46 -96t119 -36t119 36t46 95zM1724 217q0 -104 -84 -169q-84 -64 -224 -64t-224 64t-84 169
q0 137 145 195q-111 55 -110 170q0 94 77 154q76 60 196 60t198 -60t78 -154q0 -119 -111 -170q143 -59 143 -195zM1395 1393l-928 -1393h-109l928 1393h109zM668 838q0 -100 -79 -165t-204 -65t-203 58t-92 159h111q10 -53 59 -86t127 -33t126 36t48 96t-47 96
q-47 35 -131 35h-68v90h68q68 0 110 37t42 95t-42 94t-112 36t-111 -32t-49 -85h-108q10 98 80 156q69 58 187 59q118 0 190 -63t71 -172q0 -109 -96 -166q123 -51 123 -180z" />
    <glyph glyph-name="fiveeighths" unicode="&#x215d;" horiz-adv-x="1822" 
d="M1421 78q84 0 135 40q52 40 52 104t-52 104t-135 39q-84 0 -135 -39t-51 -104q0 -64 51 -104t135 -40zM1585 573q0 59 -47 97t-118 39q-72 0 -118 -38q-46 -37 -46 -97t46 -96q48 -36 120 -36t117 36q46 36 46 95zM1112 217q0 137 145 195q-111 55 -110 170q0 94 77 154
q78 60 198 60t198 -60t78 -154q0 -119 -111 -170q143 -59 144 -195q0 -104 -84 -169q-85 -64 -225 -64t-225 64t-85 169zM1399 1393l-928 -1393h-109l928 1393h109zM387 1106q133 0 208 -68t75 -179t-81 -185t-210 -74t-209 60t-98 167h110q33 -131 195 -131q84 0 136 46
t52 116t-48 111t-132 41l-143 -2h-103v389h492v-101h-389v-190h145z" />
    <glyph glyph-name="seveneighths" unicode="&#x215e;" horiz-adv-x="1642" 
d="M1241 78q84 0 135 40t51 104t-51 104t-135 39q-84 0 -135 -39t-51 -104q0 -64 51 -104t135 -40zM1241 709q-72 0 -119 -38q-47 -37 -47 -97t47 -96t119 -36t119 36t47 95t-47 97t-119 39zM1550 217q0 -104 -84 -169q-84 -64 -224 -64t-225 64t-85 169q0 137 145 195
q-111 55 -110 170q0 94 77 154q78 60 198 60t198 -60t78 -154q0 -119 -111 -170q143 -59 143 -195zM1219 1393l-928 -1393h-109l928 1393h109zM59 1290v107h566v-70l-363 -711h-127l342 674h-418z" />
    <glyph glyph-name="arrowleft" unicode="&#x2190;" horiz-adv-x="1568" 
d="M1487 766v-133h-1170l555 -549l-94 -94l-708 710l708 709l94 -92l-555 -551h1170z" />
    <glyph glyph-name="arrowup" unicode="&#x2191;" horiz-adv-x="1603" 
d="M868 0h-133v1169l-551 -555l-92 95l709 708l710 -708l-94 -95l-549 555v-1169z" />
    <glyph glyph-name="arrowright" unicode="&#x2192;" horiz-adv-x="1568" 
d="M82 766h1169l-555 551l95 92l708 -709l-708 -710l-95 94l555 549h-1169v133z" />
    <glyph glyph-name="arrowdown" unicode="&#x2193;" horiz-adv-x="1603" 
d="M868 1393v-1170l549 555l94 -94l-710 -709l-709 709l92 94l551 -555v1170h133z" />
    <glyph glyph-name="arrowupleft" unicode="&#x2196;" horiz-adv-x="1660" 
d="M184 389v1004h1004v-133l-778 2l1169 -1172l-92 -94l-1172 1169l2 -776h-133z" />
    <glyph glyph-name="arrowupright" unicode="&#x2197;" horiz-adv-x="1705" 
d="M1522 1393v-1004h-131v776l-1170 -1169l-94 94l1169 1172l-778 -2l2 133h1002z" />
    <glyph glyph-name="arrowdownright" unicode="&#x2198;" horiz-adv-x="1660" 
d="M1343 1004h134v-1004h-1004l-2 133l778 -2l-1169 1172l94 94l1169 -1170v777z" />
    <glyph glyph-name="arrowdownleft" unicode="&#x2199;" horiz-adv-x="1630" 
d="M1188 0h-1004v1004h133l-2 -777l1172 1170l92 -94l-1169 -1172l778 2v-133z" />
    <glyph glyph-name="minus" unicode="&#x2212;" horiz-adv-x="1419" 
d="M240 727h940v-131h-940v131z" />
    <glyph glyph-name="R.ss02" horiz-adv-x="1388" 
d="M342 639h365q178 0 285.5 83t107.5 227t-107.5 227.5t-285.5 83.5h-365v-621zM342 506v-506h-145v1393h514q244 0 389 -120t145 -324t-146.5 -323.5t-387.5 -119.5h-70l672 -506h-211l-678 506h-82z" />
    <glyph glyph-name="Racute.ss02" horiz-adv-x="1388" 
d="M342 639h365q178 0 285.5 83t107.5 227t-107.5 227.5t-285.5 83.5h-365v-621zM342 506v-506h-145v1393h514q244 0 389 -120t145 -324t-146.5 -323.5t-387.5 -119.5h-72l672 -506h-211l-676 506h-82zM721 1552h-131l166 291h155z" />
    <glyph glyph-name="Rcaron.ss02" horiz-adv-x="1388" 
d="M342 639h365q178 0 285.5 83t107.5 227t-107.5 227.5t-285.5 83.5h-365v-621zM342 506v-506h-145v1393h514q244 0 389 -120t145 -324t-146.5 -323.5t-387.5 -119.5h-72l672 -506h-211l-676 506h-82zM594 1548l-252 295h137l187 -207l186 207h137l-252 -295h-143z" />
    <glyph glyph-name="Rcommaaccent.ss02" horiz-adv-x="1388" 
d="M672 -135q39 0 66.5 -25.5t27.5 -60.5t-15.5 -69t-95.5 -195h-84l76 180q-70 14 -69 82q0 37 27.5 62.5t66.5 25.5zM342 639h365q178 0 285.5 83t107.5 227t-107.5 227.5t-285.5 83.5h-365v-621zM342 506v-506h-145v1393h514q244 0 389 -120t145 -324t-146.5 -323.5
t-387.5 -119.5h-72l672 -506h-211l-676 506h-82z" />
    <glyph glyph-name="Q.ss03" horiz-adv-x="1718" 
d="M1460 -301l-18 -139q-322 63 -668 170l14 106zM281 696q-1 -244 167 -417t411 -173t411 174t168 416q0 244 -168 417t-411 173t-411 -173t-167 -417zM860 1421q301 0 513 -212t212 -513t-212 -513t-513 -212t-513 212t-212 513t212 513t513 212z" />
    <glyph glyph-name="i.loclTRK" horiz-adv-x="544" 
d="M342 946v-946h-139v946h139zM272 1210q-40 0 -68 27t-28 67t28 68t68 27q40 0 70 -28q29 -27 29 -67t-29 -67t-70 -27z" />
    <glyph glyph-name="germandbls.case" horiz-adv-x="2678" 
d="M1999 1423q221 0 370.5 -104.5t174.5 -302.5h-144q-25 133 -122 206.5t-263 73.5t-261 -71.5t-95 -192.5q0 -186 287 -237l211 -41q387 -74 387 -363q0 -190 -142.5 -306t-384.5 -116t-394.5 125t-176.5 350h143q27 -164 139.5 -254t291 -90t276.5 75t98 200
q0 190 -262 237l-242 47q-190 35 -287.5 128.5t-97.5 236.5q0 180 136.5 289.5t357.5 109.5zM676 1423q221 0 369.5 -104.5t173.5 -302.5h-144q-25 133 -122 206.5t-262 73.5t-260 -71.5t-95 -192.5q0 -186 285 -237l210 -41q387 -74 388 -363q0 -190 -142.5 -306
t-384.5 -116t-394.5 125t-176.5 350h143q27 -164 139.5 -254t291 -90t277.5 75t99 200q0 190 -262 237l-242 47q-190 35 -287.5 128.5t-97.5 236.5q0 180 136.5 289.5t357.5 109.5z" />
    <glyph glyph-name="l.ss01" horiz-adv-x="739" 
d="M324 1454v-1178q0 -178 153 -178q53 0 156 25l20 -121q-111 -33 -194 -33q-133 0 -204 76t-71 223v1186h140z" />
    <glyph glyph-name="lacute.ss01" horiz-adv-x="739" 
d="M324 1454v-1178q0 -178 153 -178q51 0 158 25l20 -121q-113 -33 -196 -33q-133 0 -204 76t-71 223v1186h140zM510 1929l-191 -291h-131l166 291h156z" />
    <glyph glyph-name="lcaron.ss01" horiz-adv-x="739" 
d="M643 1454l-53 -379h-109l21 379h141zM324 1454v-1178q0 -178 153 -178q51 0 158 25l20 -121q-113 -33 -196 -33q-133 0 -204 76t-71 223v1186h140z" />
    <glyph glyph-name="lcommaaccent.ss01" horiz-adv-x="739" 
d="M309 -223q0 37 28 62.5t66.5 25.5t66.5 -25.5t28 -60.5t-15.5 -69t-95.5 -195h-84l76 180q-70 14 -70 82zM324 1454v-1178q0 -178 153 -178q51 0 158 25l20 -121q-113 -33 -196 -33q-133 0 -204 76t-71 223v1186h140z" />
    <glyph glyph-name="ldot.ss01" horiz-adv-x="774" 
d="M596 551q-41 0 -70.5 28.5t-29.5 69.5t29.5 70t70.5 29t70.5 -29t29.5 -70t-29.5 -69.5t-70.5 -28.5zM324 1454v-1178q0 -178 153 -178q51 0 158 25l20 -121q-113 -33 -196 -33q-133 0 -204 76t-71 223v1186h140z" />
    <glyph glyph-name="lslash.ss01" horiz-adv-x="739" 
d="M459 -31q-133 0 -204 76t-71 223v361l-143 -72v145l143 72v680h140v-610l153 78v-146l-153 -78v-422q0 -178 153 -178q52 0 158 25l20 -121q-113 -33 -196 -33z" />
    <glyph glyph-name="y.ss04" horiz-adv-x="1218" 
d="M1044 946v-999q0 -205 -122 -325t-318 -120q-194 0 -320 98t-153 255h143q23 -99 108 -161t219 -62t219 83q85 84 85 232v188q-139 -139 -333 -139t-307 116q-112 116 -111 314v520h139v-514q0 -147 79 -228t218 -81q88 0 172 46t143 128v649h139z" />
    <glyph glyph-name="yacute.ss04" horiz-adv-x="1218" 
d="M1044 946v-999q0 -205 -124 -325t-316 -120q-194 0 -321 98t-152 255h143q23 -99 107 -161t219 -62t220 83q85 84 85 232v188q-139 -139 -333 -139t-307 116q-112 116 -111 314v520h139v-514q0 -147 79 -228t218 -81q88 0 172 46t143 128v649h139zM659 1130h-131l166 291
h156z" />
    <glyph glyph-name="ycircumflex.ss04" horiz-adv-x="1218" 
d="M1044 946v-999q0 -205 -124 -325t-316 -120q-194 0 -321 98t-152 255h143q23 -99 107 -161t219 -62t220 83q85 84 85 232v188q-139 -139 -333 -139t-307 116q-112 116 -111 314v520h139v-514q0 -147 79 -228t218 -81q88 0 172 46t143 128v649h139zM416 1116h-137l251 295
h144l252 -295h-138l-186 205z" />
    <glyph glyph-name="ydieresis.ss04" horiz-adv-x="1218" 
d="M1044 946v-999q0 -205 -124 -325t-316 -120q-194 0 -321 98t-152 255h143q23 -99 107 -161t219 -62t220 83q85 84 85 232v188q-139 -139 -333 -139t-307 116q-112 116 -111 314v520h139v-514q0 -147 79 -228t218 -81q88 0 172 46t143 128v649h139zM694 1274q0 42 29 70
t71 28t72 -29t29 -69q1 -40 -29 -70q-30 -28 -72 -28t-71 28t-29 70zM311 1274q0 42 29 70t71 28q41 0 71 -29t30 -69t-30 -70q-30 -28 -71 -28q-42 0 -71 28t-29 70z" />
    <glyph glyph-name="ygrave.ss04" horiz-adv-x="1218" 
d="M1044 946v-999q0 -205 -124 -325t-316 -120q-194 0 -321 98t-152 255h143q23 -99 107 -161t219 -62t220 83q85 84 85 232v188q-139 -139 -333 -139t-307 116q-112 116 -111 314v520h139v-514q0 -147 79 -228t218 -81q88 0 172 46t143 128v649h139zM557 1133l-190 290h155
l166 -290h-131z" />
    <glyph glyph-name="a.ss06" horiz-adv-x="1112" 
d="M506 94q186 0 336 123v213h-389q-105 0 -157 -44t-52 -118t70 -124t192 -50zM588 965q180 0 286 -112t107 -314v-539h-139v86q-164 -111 -346 -111t-285 80q-102 80 -102 210t92 203t256 71h385q0 305 -273 305q-104 0 -178 -45t-88 -123h-143q18 137 134 213
q114 76 294 76z" />
    <glyph glyph-name="aacute.ss06" horiz-adv-x="1112" 
d="M506 94q186 0 336 123v213h-389q-101 0 -155 -44t-54 -118t70 -124t192 -50zM588 965q180 0 286 -112t107 -314v-539h-139v86q-164 -111 -346 -111t-285 80q-102 80 -102 210t92 203t256 71h385q0 305 -273 305q-104 0 -178 -45t-88 -123h-143q18 137 134 213
q114 76 294 76zM635 1130h-131l166 291h155z" />
    <glyph glyph-name="abreve.ss06" horiz-adv-x="1112" 
d="M506 94q186 0 336 123v213h-389q-101 0 -155 -44t-54 -118t70 -124t192 -50zM588 965q180 0 286 -112t107 -314v-539h-139v86q-164 -111 -346 -111t-285 80q-102 80 -102 210t92 203t256 71h385q0 305 -273 305q-104 0 -178 -45t-88 -123h-143q18 137 134 213
q114 76 294 76zM578 1106q-125 0 -208 74t-83 211h106q0 -91 54 -139q55 -48 131 -48t130 47t54 140h106q0 -137 -82 -211t-208 -74z" />
    <glyph glyph-name="acaron.ss06" horiz-adv-x="1112" 
d="M506 94q186 0 336 123v213h-389q-101 0 -155 -44t-54 -118t70 -124t192 -50zM588 965q180 0 286 -112t107 -314v-539h-139v86q-164 -111 -346 -111t-285 80q-102 80 -102 210t92 203t256 71h385q0 305 -273 305q-104 0 -178 -45t-88 -123h-143q18 137 134 213
q114 76 294 76zM506 1116l-252 295h137l187 -207l186 207h137l-252 -295h-143z" />
    <glyph glyph-name="acircumflex.ss06" horiz-adv-x="1112" 
d="M506 94q186 0 336 123v213h-389q-101 0 -155 -44t-54 -118t70 -124t192 -50zM588 965q180 0 286 -112t107 -314v-539h-139v86q-164 -111 -346 -111t-285 80q-102 80 -102 210t92 203t256 71h385q0 305 -273 305q-104 0 -178 -45t-88 -123h-143q18 137 134 213
q114 76 294 76zM391 1116h-137l252 295h143l252 -295h-137l-186 205z" />
    <glyph glyph-name="adieresis.ss06" horiz-adv-x="1112" 
d="M506 94q186 0 336 123v213h-389q-101 0 -155 -44t-54 -118t70 -124t192 -50zM588 965q180 0 286 -112t107 -314v-539h-139v86q-164 -111 -346 -111t-285 80q-102 80 -102 210t92 203t256 71h385q0 305 -273 305q-104 0 -178 -45t-88 -123h-143q18 137 134 213
q114 76 294 76zM769 1176q-42 0 -71 28t-28 70q0 42 28 70t71 28q42 0 72 -29q29 -29 29 -69t-29 -70q-30 -28 -72 -28zM386 1176q-42 0 -71 28t-28 70t29 70t70 28t72 -29t30 -69t-30 -70q-30 -28 -72 -28z" />
    <glyph glyph-name="agrave.ss06" horiz-adv-x="1112" 
d="M506 94q186 0 336 123v213h-389q-101 0 -155 -44t-54 -118t70 -124t192 -50zM588 965q180 0 286 -112t107 -314v-539h-139v86q-164 -111 -346 -111t-285 80q-102 80 -102 210t92 203t256 71h385q0 305 -273 305q-104 0 -178 -45t-88 -123h-143q18 137 134 213
q114 76 294 76zM532 1133l-190 290h156l166 -290h-132z" />
    <glyph glyph-name="amacron.ss06" horiz-adv-x="1112" 
d="M506 94q186 0 336 123v213h-389q-101 0 -155 -44t-54 -118t70 -124t192 -50zM588 965q180 0 286 -112t107 -314v-539h-139v86q-164 -111 -346 -111t-285 80q-102 80 -102 210t92 203t256 71h385q0 305 -273 305q-104 0 -178 -45t-88 -123h-143q18 137 134 213
q114 76 294 76zM860 1171h-567v115h567v-115z" />
    <glyph glyph-name="aogonek.ss06" horiz-adv-x="1112" 
d="M506 94q186 0 336 123v213h-389q-101 0 -155 -44t-54 -118t70 -124t192 -50zM950 -389q-118 0 -190 59t-72 156q0 129 154 207v53q-164 -111 -346 -111t-285 80q-102 80 -102 210t92 203t256 71h385q0 305 -273 305q-104 0 -178 -45t-88 -123h-143q18 137 134 213t275 76
q199 0 305 -112t107 -314v-533l2 -6q-174 -55 -174 -160q0 -53 42 -84t118 -30q24 0 69 8l15 -109q-39 -14 -103 -14z" />
    <glyph glyph-name="aring.ss06" horiz-adv-x="1112" 
d="M506 94q186 0 336 123v213h-389q-101 0 -155 -44t-54 -118t70 -124t192 -50zM588 965q180 0 286 -112t107 -314v-539h-139v86q-164 -111 -346 -111t-285 80q-102 80 -102 210t92 203t256 71h385q0 305 -273 305q-104 0 -178 -45t-88 -123h-143q18 137 134 213
q114 76 294 76zM580 1430q-51 0 -85 -34t-34 -84t34 -84t85 -34t84 34q32 34 32 84t-32 84q-33 34 -84 34zM782 1313q0 -85 -57 -141t-146 -56t-147 55q-57 55 -57 141t57 141q58 54 148 54t146 -54t56 -140z" />
    <glyph glyph-name="atilde.ss06" horiz-adv-x="1112" 
d="M506 94q186 0 336 123v213h-389q-101 0 -155 -44t-54 -118t70 -124t192 -50zM588 965q180 0 286 -112t107 -314v-539h-139v86q-164 -111 -346 -111t-285 80q-102 80 -102 210t92 203t256 71h385q0 305 -273 305q-104 0 -178 -45t-88 -123h-143q18 137 134 213
q114 76 294 76zM389 1204h-115q0 94 52 148t118 52q66 -3 125 -34l86 -55q63 -41 106 -21q42 20 42 82h115q0 -94 -50 -149t-116 -55t-129 36l-86 58q-57 38 -103 18t-45 -80z" />
    <glyph glyph-name="zero.osf" horiz-adv-x="1370" 
d="M685 104q183 0 302 123t119 324t-119 323t-302 123q-183 0 -302 -123q-119 -124 -119 -324t119 -323t302 -123zM686 1126q248 0 405 -158t157 -416q0 -259 -158 -418t-405 -159t-405 159t-157 418q-1 258 157 416t406 158z" />
    <glyph glyph-name="one.osf" horiz-adv-x="1036" 
d="M1008 121v-121h-908v121h398v844l-373 -129v127l436 163h80v-1005h367z" />
    <glyph glyph-name="two.osf" horiz-adv-x="1132" 
d="M1030 121v-121h-903v76l319 229q16 11 80 57q255 181 307 278q26 50 25 103q0 121 -78 192t-217 71t-226 -76t-101 -205h-140q10 184 133 296t328 112t326 -109t121 -271t-134 -284q-74 -68 -132 -111t-183 -127l-164 -110h639z" />
    <glyph glyph-name="three.osf" horiz-adv-x="1153" 
d="M477 354v119h115q129 0 208 73q79 74 79 194t-83 194q-82 74 -214 74t-214 -65t-96 -173h-141q14 164 134 263q121 99 315 99t315 -108q121 -109 121 -287q-1 -223 -191 -317q233 -94 234 -336q0 -174 -131 -286t-343 -112t-342 100q-130 99 -149 267h142
q18 -113 109 -177t241 -64t242 76t94 197q0 122 -90 196t-240 73h-115z" />
    <glyph glyph-name="four.osf" horiz-adv-x="1316" 
d="M1223 2h-226v-307h-139v307h-749v88l423 997h150l-403 -960h579v453h139v-453h226v-125z" />
    <glyph glyph-name="five.osf" horiz-adv-x="1198" 
d="M330 575h282q215 1 345 -117t130 -312t-138 -325q-138 -132 -354 -132q-216 -1 -351 107t-168 294h143q31 -131 125 -204q94 -72 250 -72t256 96t100 234t-96 222t-258 85l-401 -2l2 663h819v-129h-686v-408z" />
    <glyph glyph-name="six.osf" horiz-adv-x="1259" 
d="M629 930q225 0 369 -133t144 -343t-144 -348t-368 -137q-224 0 -370 136q-145 136 -145 346q0 152 110 321l121 -82l-119 82l441 621h172l-336 -478q55 15 125 15zM256 432q0 -142 105 -243t267 -101t267 101q104 101 104 257t-104 256t-269 100t-270 -97l-10 -15
q-90 -116 -90 -258z" />
    <glyph glyph-name="seven.osf" horiz-adv-x="1028" 
d="M983 1106v-88l-645 -1305h-164l625 1258h-766v135h950z" />
    <glyph glyph-name="eight.osf" horiz-adv-x="1273" 
d="M637 90q162 0 263 85t101 213t-101 208t-263 80t-263 -79q-102 -79 -102 -208t102 -214t263 -85zM636 1309q-138 0 -228 -78t-91 -195q-1 -116 89 -188t231 -72t230 72t89 188t-91 194q-91 79 -229 79zM1157 383q0 -184 -143 -299t-379 -115t-378 115t-142 299
q0 125 72 217q73 92 204 137q-215 90 -215 307q0 164 130 272t331 108t332 -108t131 -272q0 -219 -217 -309q129 -45 201 -137t73 -215z" />
    <glyph glyph-name="nine.osf" horiz-adv-x="1259" 
d="M1001 656q0 144 -104 246t-266 102t-266 -102q-105 -102 -105 -257q0 -156 104 -256t270 -100q165 0 269 98l10 14q88 111 88 255zM630 1122q224 0 369 -136t146 -345q0 -154 -113 -322l-440 -620h-172l336 477q-68 -14 -127 -14q-223 0 -368 133q-144 133 -144 343
t144 347q145 137 369 137z" />
    <glyph glyph-name="zero.tf" horiz-adv-x="1241" 
d="M617 100q198 0 310 165t111 431q0 266 -111 431q-112 165 -310 165q-197 0 -309 -164t-112 -432t112 -432q111 -164 309 -164zM1186 696q0 -326 -153 -526t-416 -201q-263 0 -415 201q-152 200 -153 526q1 326 153 526t415 201q263 -1 416 -201t153 -526z" />
    <glyph glyph-name="one.tf" horiz-adv-x="1241" 
d="M1141 121v-121h-991v121h444v1110l-373 -129v127l438 164h80v-1272h402z" />
    <glyph glyph-name="two.tf" horiz-adv-x="1241" 
d="M1104 121v-121h-916v76l449 477q113 115 163 172t91 134t41 149q0 124 -84 206t-224 82t-230 -76q-89 -76 -105 -204h-144q11 184 137 296t334 112t334 -120q127 -118 127 -296q1 -121 -71 -229t-248 -290l-352 -368h698z" />
    <glyph glyph-name="three.tf" horiz-adv-x="1241" 
d="M1124 371q0 -174 -131 -286t-343 -112q-212 -1 -342 99t-148 268h141q17 -114 109 -178t242 -64t242 76q93 76 93 198t-90 196t-240 73h-114v119h114q129 0 208 73t79 193t-83 195q-83 73 -214 73t-213 -64t-96 -173h-141q14 164 134 263q121 99 315 99q194 -1 315 -109
t120 -286q0 -223 -190 -317q233 -94 233 -336z" />
    <glyph glyph-name="four.tf" horiz-adv-x="1241" 
d="M1186 307h-225v-307h-140v307h-749v88l424 998h149l-403 -961h579v453h140v-453h225v-125z" />
    <glyph glyph-name="five.tf" horiz-adv-x="1241" 
d="M334 856h282q216 0 346 -118t130 -312t-138 -325q-138 -132 -355 -132q-216 0 -351 108t-168 294h143q31 -131 125 -204t250 -73t256 96t100 234t-96 223q-96 84 -258 84l-401 -2l2 664h819v-129h-686v-408z" />
    <glyph glyph-name="six.tf" horiz-adv-x="1241" 
d="M645 88q162 0 266 101q105 101 105 257t-104 256t-270 100q-165 0 -269 -97l-11 -15q-88 -112 -88 -256t104 -245t267 -101zM647 930q223 0 367 -133t145 -343q0 -210 -144 -348q-145 -138 -369 -137q-224 0 -370 136q-145 136 -145 346q0 152 113 321l440 621h172
l-336 -478q68 15 127 15z" />
    <glyph glyph-name="seven.tf" horiz-adv-x="1241" 
d="M1116 1393v-88l-645 -1305h-164l627 1257h-768v136h950z" />
    <glyph glyph-name="eight.tf" horiz-adv-x="1241" 
d="M627 90q162 0 264 85t102 213t-102 208t-264 80t-263 -79q-102 -79 -102 -208t102 -214t263 -85zM628 1309q-138 0 -230 -78t-91 -195q0 -116 90 -188q91 -72 231 -72t230 72t90 188t-91 194q-91 79 -229 79zM1149 383q0 -184 -143 -299t-379 -115t-378 115t-143 299
q0 123 72 215t203 139q-215 86 -215 307q0 164 130 272t331 108t331 -108t132 -272q-1 -217 -216 -309q129 -45 202 -137t73 -215z" />
    <glyph glyph-name="nine.tf" horiz-adv-x="1206" 
d="M973 958q-1 144 -105 245t-266 101t-266 -100q-104 -102 -104 -258t104 -256t269 -100t269 98l11 14q88 112 88 256zM601 1423q223 0 369 -136t146 -345q0 -152 -112 -321l-441 -621h-172l336 477q-68 -14 -127 -14q-223 0 -368 133q-144 133 -144 343t144 347
q145 137 369 137z" />
    <glyph glyph-name="zero.zero" horiz-adv-x="1468" 
d="M733 100q215 0 334 164t119 426t-105 416l-610 -918q110 -88 262 -88zM733 1292q-215 0 -334 -164t-119 -421t99 -412l610 913q-106 84 -256 84zM735 1423q281 1 441 -199t160 -528t-160 -528t-441 -199q-281 0 -441 200q-160 199 -159 527q-1 328 159 528t441 199z" />
    <glyph glyph-name="zero.osf.zero" horiz-adv-x="1370" 
d="M709 104q171 0 290 123t119 324q0 160 -82 278l-608 -632q110 -93 281 -93zM276 551q0 -154 74 -266l606 628q-113 84 -258 84q-184 -1 -303 -123t-119 -323zM697 -25q-247 0 -405 159t-157 418q-1 258 157 416t405 158t405 -158t158 -416q0 -259 -158 -418t-405 -159z
" />
    <glyph glyph-name="zero.dnom" horiz-adv-x="890" 
d="M444 86q117 0 183 86q65 86 65 218t-65 219q-66 87 -182 87q-115 0 -181 -87t-66 -219t65 -218q64 -86 181 -86zM445 797q167 0 263 -115t97 -293q0 -178 -96 -292q-95 -113 -263 -113t-265 114t-97 292q0 177 97 292t264 115z" />
    <glyph glyph-name="one.dnom" horiz-adv-x="634" 
d="M608 94v-94h-547v94h228v557l-215 -59v96l262 80h59v-674h213z" />
    <glyph glyph-name="two.dnom" horiz-adv-x="735" 
d="M651 94v-94h-551v59l277 277q84 82 117 127q32 45 32 101t-43 95t-115 39t-116 -38q-43 -38 -47 -103h-111q6 111 77 175t196 65q125 0 197 -66t73 -149q0 -83 -38 -145t-130 -152l-186 -191h368z" />
    <glyph glyph-name="three.dnom" horiz-adv-x="759" 
d="M666 213q0 -100 -79 -165q-79 -64 -204 -64t-203 58t-92 159h111q10 -53 59 -86t127 -33t126 36t48 96t-47 95t-131 35h-68v90h68q67 0 109 37t42 95t-42 94t-112 36t-110 -32q-41 -32 -49 -84h-108q10 98 79 156q70 58 188 58t190 -62q72 -64 71 -173q0 -109 -96 -166
q123 -51 123 -180z" />
    <glyph glyph-name="four.dnom" horiz-adv-x="821" 
d="M735 164h-123v-164h-108v164h-434v72l243 544h115l-227 -518h303v240h108v-240h123v-98z" />
    <glyph glyph-name="five.dnom" horiz-adv-x="774" 
d="M242 489h145q133 1 208 -67t75 -180t-81 -185t-210 -73t-209 60t-98 167h110q33 -131 195 -131q84 0 136 46t52 116t-48 110t-132 41l-143 -2h-103v389h492v-100h-389v-191z" />
    <glyph glyph-name="six.dnom" horiz-adv-x="761" 
d="M374 428q-88 0 -140 -51t-52 -126t56 -126t140 -51q85 0 139 50t54 128t-54 127t-143 49zM381 526q133 0 217 -76t84 -193q0 -118 -85 -196q-85 -77 -218 -77t-219 78t-86 178q0 102 69 202l242 338h131l-180 -256q14 2 45 2z" />
    <glyph glyph-name="seven.dnom" horiz-adv-x="641" 
d="M606 780v-69l-362 -711h-127l342 674h-418v106h565z" />
    <glyph glyph-name="eight.dnom" horiz-adv-x="804" 
d="M217 222q0 -64 51 -104t134 -40t135 40q51 40 51 104t-51 104t-135 39q-84 0 -134 -39q-51 -39 -51 -104zM567 573q0 59 -47 97t-118 39q-72 0 -118 -38q-46 -37 -46 -97t46 -96t118 -36t119 36q46 36 46 95zM94 217q0 135 144 195q-111 56 -111 160t78 164q77 60 197 60
t198 -60t78 -154q0 -119 -111 -170q143 -59 144 -195q0 -104 -84 -169q-85 -64 -225 -64t-224 64t-84 169z" />
    <glyph glyph-name="nine.dnom" horiz-adv-x="761" 
d="M532 410q48 56 48 126t-56 121t-140 51q-85 0 -139 -50q-55 -50 -55 -128t54 -127t144 -49q89 0 144 56zM383 799q133 0 219 -78q86 -77 86 -179t-70 -202l-241 -338h-131l180 256q-14 -2 -45 -2q-133 0 -217 76t-84 194t85 195q85 78 218 78z" />
    <glyph glyph-name="zero.numr" horiz-adv-x="890" 
d="M444 702q117 0 183 86q65 86 65 218t-65 220q-66 87 -182 87q-115 0 -181 -87t-66 -219q0 -133 65 -219q64 -86 181 -86zM84 1007q0 177 97 291t264 115q167 0 263 -115q96 -114 97 -292q0 -178 -96 -292q-95 -114 -263 -114t-265 115t-97 292z" />
    <glyph glyph-name="one.numr" horiz-adv-x="634" 
d="M608 711v-95h-547v95h228v557l-215 -60v97l262 79h59v-673h213z" />
    <glyph glyph-name="two.numr" horiz-adv-x="735" 
d="M651 711v-95h-551v60l277 276q84 82 117 127q32 45 32 101t-43 96q-43 39 -115 39t-116 -38q-43 -38 -47 -103h-111q6 112 77 176t196 64t197 -66t73 -149q0 -83 -38 -145t-130 -153l-186 -190h368z" />
    <glyph glyph-name="three.numr" horiz-adv-x="759" 
d="M666 838q0 -100 -79 -165t-204 -65t-203 58t-92 159h111q10 -53 59 -86t127 -33t126 36t48 96t-47 96q-47 35 -131 35h-68v90h68q67 0 109 37t42 95t-42 94t-112 36t-110 -32q-41 -32 -49 -85h-108q10 98 79 157q70 58 188 58t190 -63t71 -172q0 -109 -96 -166
q123 -51 123 -180z" />
    <glyph glyph-name="four.numr" horiz-adv-x="821" 
d="M735 780h-123v-164h-108v164h-434v72l243 545h115l-227 -518h303v239h108v-239h123v-99z" />
    <glyph glyph-name="five.numr" horiz-adv-x="774" 
d="M242 1106h145q133 0 208 -68t75 -180t-81 -184q-81 -74 -210 -74t-209 60t-98 167h110q33 -131 195 -131q84 0 136 46t52 116t-48 111t-132 41l-143 -2h-103v389h492v-101h-389v-190z" />
    <glyph glyph-name="six.numr" horiz-adv-x="761" 
d="M374 1044q-88 0 -140 -51t-52 -126t56 -126t140 -51q85 0 139 50t54 128t-54 127t-143 49zM381 1143q133 0 217 -76t84 -194q0 -117 -85 -195t-218 -78t-219 78t-86 179t69 202l242 338h131l-180 -256q14 2 45 2z" />
    <glyph glyph-name="seven.numr" horiz-adv-x="641" 
d="M606 1397v-70l-362 -711h-127l342 674h-418v107h565z" />
    <glyph glyph-name="eight.numr" horiz-adv-x="804" 
d="M402 702q83 0 135 40q51 40 51 104t-51 104q-51 39 -135 39t-134 -39q-51 -40 -51 -104t51 -104t134 -40zM402 1333q-72 0 -118 -38t-46 -97t46 -95t118 -36t119 36q46 36 46 95t-47 97t-118 38zM402 608q-140 0 -224 65t-84 169q0 135 144 194q-111 56 -111 160t78 164
q77 60 197 61q120 0 198 -60t78 -155q0 -119 -111 -170q143 -59 144 -194q0 -104 -84 -169q-85 -65 -225 -65z" />
    <glyph glyph-name="nine.numr" horiz-adv-x="761" 
d="M384 1333q-85 0 -139 -50q-55 -50 -55 -128t54 -127t144 -49q89 0 140 51t51 126q1 75 -55 126t-140 51zM383 1423q133 1 219 -77t86 -180t-70 -201l-241 -338h-131l180 256q-14 -2 -45 -2q-133 -1 -217 75t-84 194t85 196t218 77z" />
    <glyph glyph-name="backslash.case" horiz-adv-x="757" 
d="M68 1495h145l477 -1591h-145z" />
    <glyph glyph-name="bullet.case" horiz-adv-x="651" 
d="M561 680q-1 -94 -71 -164t-165 -70t-165 70t-70 164t70 164t165 70t165 -70t71 -164z" />
    <glyph glyph-name="exclamdown.case" horiz-adv-x="538" 
d="M195 0l10 1014h127l10 -1014h-147zM268 1409q41 0 70 -27q29 -26 29 -66t-29 -67t-70 -27q-40 0 -68 28q-28 26 -28 66t28 66t68 27z" />
    <glyph glyph-name="periodcentered.case" horiz-adv-x="362" 
d="M279 681q0 -39 -29 -67t-69 -28q-41 0 -69 28t-28 67q0 40 29 67q29 26 69 26t68 -26q29 -26 29 -67z" />
    <glyph glyph-name="questiondown.case" horiz-adv-x="1161" 
d="M631 709q-143 0 -237 -87q-94 -86 -93 -218q0 -132 88 -219t212 -87t208 65t104 167h144q-25 -162 -143 -259t-304 -97t-316 121q-130 122 -130 301t117 293t309 122l4 195h115l12 -297h-90zM653 1409q41 0 69 -27q28 -26 28 -66t-28 -67t-69 -27t-69 28q-28 26 -27 66
q-1 40 27 66t69 27z" />
    <glyph glyph-name="slash.case" horiz-adv-x="757" 
d="M94 -96l477 1591h146l-477 -1591h-146z" />
    <glyph glyph-name="braceleft.case" horiz-adv-x="729" 
d="M426 1167v-184q0 -121 -33 -185t-117 -93q84 -29 117 -94t33 -185v-184q0 -100 56 -162t151 -62v-135q-156 1 -251 99t-95 260v180q0 127 -47 173t-160 46v127q113 0 160 46t47 173v180q0 162 95 260t251 99v-135q-95 0 -151 -62t-56 -162z" />
    <glyph glyph-name="braceright.case" horiz-adv-x="741" 
d="M317 983v184q0 99 -56 161t-150 63v135q157 0 251 -98t95 -261v-180q0 -127 46 -173t161 -46v-127q-115 0 -161 -46t-46 -173v-180q1 -162 -95 -260t-251 -99v135q94 0 150 62t56 162v184q0 122 32 186t116 93q-84 29 -116 93t-32 185z" />
    <glyph glyph-name="bracketleft.case" horiz-adv-x="714" 
d="M336 37h282v-135h-421v1593h421v-133h-282v-1325z" />
    <glyph glyph-name="bracketright.case" horiz-adv-x="686" 
d="M68 1362v133h421v-1593h-421v135h282v1325h-282z" />
    <glyph glyph-name="parenleft.case" horiz-adv-x="694" 
d="M281 690q-1 -236 77 -388t260 -312l-90 -92q-205 168 -299 352t-94 441t95 447t298 355l90 -92q-180 -163 -258 -319t-79 -392z" />
    <glyph glyph-name="parenright.case" horiz-adv-x="694" 
d="M559 692q0 -258 -95 -442t-300 -352l-88 92q182 162 260 314t78 386q0 236 -79 392t-259 319l88 92q205 -166 300 -355q95 -188 95 -446z" />
    <glyph glyph-name="emdash.case" horiz-adv-x="1941" 
d="M1759 760v-139h-1577v139h1577z" />
    <glyph glyph-name="endash.case" horiz-adv-x="1497" 
d="M1257 758v-140h-1017v140h1017z" />
    <glyph glyph-name="hyphen.case" horiz-adv-x="1153" 
d="M913 758v-140h-673v140h673z" />
    <glyph glyph-name="guillemotleft.case" horiz-adv-x="878" 
d="M786 995l-223 -303l223 -305h-139l-225 305l225 303h139zM455 995l-224 -303l224 -305h-140l-223 305l223 303h140z" />
    <glyph glyph-name="guillemotright.case" horiz-adv-x="878" 
d="M786 692l-223 -305h-141l225 305l-225 303h141zM455 692l-224 -305h-139l223 305l-223 303h139z" />
    <glyph glyph-name="guilsinglleft.case" horiz-adv-x="546" 
d="M455 995l-224 -303l224 -305h-140l-223 305l223 303h140z" />
    <glyph glyph-name="guilsinglright.case" horiz-adv-x="546" 
d="M455 692l-224 -305h-139l223 305l-223 303h139z" />
    <glyph glyph-name="florin.tf" horiz-adv-x="1241" 
d="M963 1274q-190 0 -222 -227l-39 -295h349v-119h-365l-57 -453q-23 -166 -109 -261t-233 -95q-96 0 -195 29l21 120q87 -20 167 -20t136 60q55 60 67 167l60 453h-267v119h283l39 295q23 166 109 261t233 95q96 0 195 -29l-23 -121q-86 21 -149 21z" />
    <glyph glyph-name="cent.tf" horiz-adv-x="1241" 
d="M625 102q115 0 195 58t104 155h145q-27 -137 -129 -228t-250 -110v-235h-129v235q-190 19 -310 159t-120 336t120 335t310 160v260h129v-260q148 -17 250 -109t129 -229h-145q-23 96 -104 154t-195 59q-156 0 -254 -106q-99 -106 -99 -264t98 -264t255 -106z" />
    <glyph glyph-name="dollar.tf" horiz-adv-x="1241" 
d="M1161 391q0 -176 -123 -290t-327 -130v-239h-129v239q-224 15 -360 139t-159 334h144q27 -164 139 -254t291 -90q178 0 277 75t100 200q0 190 -262 237l-242 47q-190 35 -288 128q-97 93 -97 251t125 267t332 118v248h129v-252q186 -19 307 -123t143 -280h-143
q-25 133 -122 207q-97 73 -262 73t-260 -72t-95 -192q-1 -186 284 -237l211 -41q387 -74 387 -363z" />
    <glyph glyph-name="Euro.tf" horiz-adv-x="1241" 
d="M738 100q180 0 268 127h176q-60 -121 -180 -189t-279 -69q-225 0 -376 135t-202 367h-118v104h102q-6 59 -6 117t2 86h-98v105h110q43 250 197 395t389 145q172 1 296 -77t183 -218h-166q-41 78 -124 121t-189 43q-174 0 -287 -110t-149 -299h637l-27 -105h-623
q-4 -53 -4 -98t6 -105h570l-27 -104h-522q43 -175 151 -273q110 -98 290 -98z" />
    <glyph glyph-name="sterling.tf" horiz-adv-x="1241" 
d="M354 123h801v-123h-1094v123h154v457h-154v122h154v252q0 211 131 340t338 129q207 1 336 -109t149 -294h-143q-18 129 -107 204q-89 74 -234 74t-238 -94t-93 -250v-252h490v-122h-490v-457z" />
    <glyph glyph-name="yen.tf" horiz-adv-x="1241" 
d="M1069 539v-109h-377v-137h377v-109h-377v-184h-147v184h-379v109h379v137h-379v109h356l-461 854h162l395 -744l394 744h162l-459 -854h354z" />
    <glyph glyph-name="arrowdown.ss05" horiz-adv-x="1404" 
d="M1208 831l-506 -507l-505 510l86 88l419 -422l420 420z" />
    <glyph glyph-name="arrowleft.ss05" horiz-adv-x="1404" 
d="M1122 336l-420 420l-419 -422l-86 88l505 510l506 -508z" />
    <glyph glyph-name="arrowright.ss05" horiz-adv-x="1169" 
d="M428 705l418 -420l-88 -86l-506 506l508 505l88 -86z" />
    <glyph glyph-name="arrowup.ss05" horiz-adv-x="1144" 
d="M893 705l-506 -506l-88 86l420 420l-422 419l88 86z" />
    <glyph glyph-name="at.case" horiz-adv-x="2027" 
d="M1006 326q166 0 264 145q-6 49 -6 102v197q-96 137 -258 137q-119 0 -204 -81t-85 -210q0 -130 85 -210t204 -80zM1391 991v-442q0 -223 151 -223q104 0 162 87q57 87 57 230q0 299 -217 507t-526 208q-310 0 -530 -212t-220 -518t220 -517t526 -211q270 0 477 168
l61 -91q-229 -182 -536 -182q-233 0 -429 108q-196 109 -313 301t-116 425q0 354 252 594q252 239 609 239t604 -236t247 -579q0 -190 -83 -310t-255 -120t-234 141q-117 -147 -298 -147t-297 116q-115 115 -115 289t114 289q115 115 282 115t280 -109v80h127z" />
    <glyph glyph-name="bar.case" horiz-adv-x="636" 
d="M385 1495v-1591h-133v1591h133z" />
    <glyph glyph-name="brokenbar.case" horiz-adv-x="636" 
d="M385 -96h-133v690h133v-690zM385 803h-133v692h133v-692z" />
    <glyph glyph-name="registered.ss07" horiz-adv-x="1759" 
d="M719 676h180q90 0 143 42q54 42 54 114t-54 114q-54 43 -143 43h-180v-313zM901 1075q129 1 210 -67t81 -166t-55 -159q-55 -60 -150 -81l225 -264h-116l-215 256h-162v-256h-92v737h274zM879 68q262 0 452 182t191 446q0 264 -190 446t-453 183q-261 0 -451 -182
q-190 -183 -190 -447t190 -446t451 -182zM881 1423q307 0 526 -209t219 -518t-219 -518t-526 -209t-527 209q-219 209 -219 518t219 518q220 209 527 209z" />
    <glyph glyph-name="caron.alt" 
d="M682 1393l-53 -379h-109l21 379h141z" />
    <glyph glyph-name="acute.case" 
d="M850 1808l-191 -290h-131l166 290h156z" />
    <glyph glyph-name="breve.case" 
d="M799 1815h106q0 -135 -84 -210t-207 -75q-122 0 -206 75t-84 210h106q0 -91 54 -139t130 -48t130 48t55 139z" />
    <glyph glyph-name="caron.case" 
d="M938 1808l-252 -295h-143l-252 295h137l186 -206l187 206h137z" />
    <glyph glyph-name="circumflex.case" 
d="M614 1718l-186 -205h-137l252 295h143l252 -295h-137z" />
    <glyph glyph-name="dieresis.case" 
d="M806 1753q42 0 72 -29q30 -30 30 -70t-30 -69t-72 -29t-71 29t-28 70t29 69t70 29zM423 1753q42 0 72 -29q29 -30 29 -70t-30 -69t-71 -29q-42 0 -71 29t-28 70q0 41 28 69t71 29z" />
    <glyph glyph-name="dotaccent.case" 
d="M614 1556q-40 0 -70 29t-30 70t30 69t70 29q40 0 71 -29q30 -30 30 -70t-30 -69t-71 -29z" />
    <glyph glyph-name="grave.case" 
d="M745 1518h-131l-190 290h156z" />
    <glyph glyph-name="hungarumlaut.case" 
d="M977 1808l-172 -290h-121l147 290h146zM700 1808l-170 -290h-122l145 290h147z" />
    <glyph glyph-name="macron.case" 
d="M897 1671v-115h-567v115h567z" />
    <glyph glyph-name="ring.case" 
d="M612 1622q51 0 84 33t33 83t-33 84t-84 34t-85 -34q-33 -34 -33 -84t34 -83t84 -33zM612 1933q90 0 146 -54t57 -140q0 -85 -57 -141q-56 -56 -146 -56t-147 55t-57 141t57 141q57 54 147 54z" />
    <glyph glyph-name="tilde.case" 
d="M811 1761h115q0 -94 -50 -149t-116 -53t-129 36l-86 56q-57 39 -103 19t-45 -81h-114q0 95 52 149t118 51t125 -34l86 -55q63 -40 105 -20t42 81z" />
    </font>
</defs>
</svg>
